<?xml version="1.0" encoding="UTF-8"?>
<!DOCTYPE svg PUBLIC "-//W3C//DTD SVG 1.1//EN" "http://www.w3.org/Graphics/SVG/1.1/DTD/svg11.dtd">
<!-- Creator: CorelDRAW 2020 (64-Bit) -->
<svg xmlns="http://www.w3.org/2000/svg" xml:space="preserve" width="45mm" height="44.9192mm" version="1.1" style="shape-rendering:geometricPrecision; text-rendering:geometricPrecision; image-rendering:optimizeQuality; fill-rule:evenodd; clip-rule:evenodd"
viewBox="0 0 841.77 840.26"
 xmlns:xlink="http://www.w3.org/1999/xlink"
 xmlns:xodm="http://www.corel.com/coreldraw/odm/2003">
 <defs>
  <style type="text/css">
   <![CDATA[
    .fil0 {fill:#FEFEFE}
    .fil3 {fill:#00A9A6}
    .fil4 {fill:#2A385C}
    .fil5 {fill:#FEFEFE;fill-rule:nonzero}
    .fil1 {fill:#00A9A6;fill-rule:nonzero}
    .fil2 {fill:#2A385C;fill-rule:nonzero}
   ]]>
  </style>
 </defs>
 <g id="Слой_x0020_1">
  <metadata id="CorelCorpID_0Corel-Layer"/>
  <g id="_2601496755872">
   <path class="fil0" d="M420.89 3.54c230.5,0 417.35,186.85 417.35,417.35 0,145.99 -74.96,274.48 -188.5,349.07 -65.71,43.17 -144.35,50.29 -228.85,50.29 -78.34,0 -151.64,-3.59 -214.27,-41.13 -121.66,-72.92 -203.08,-206.06 -203.08,-358.22 0,-230.49 186.85,-417.35 417.35,-417.35z"/>
   <path class="fil1" d="M420.89 0c116.22,0 221.45,47.11 297.61,123.28 76.16,76.17 123.28,181.39 123.28,297.61 0,72.25 -18.22,140.27 -50.31,199.69 -33.28,61.63 -81.49,114.02 -139.79,152.32 -33.29,21.87 -69.81,34.6 -108.68,41.86 -38.73,7.23 -79.7,9.03 -122.11,9.03 -39.27,0 -77.31,-0.91 -113.56,-6.54 -36.37,-5.66 -70.77,-16.07 -102.52,-35.1 -62.44,-37.43 -114.37,-90.58 -150.31,-153.98 -34.69,-61.2 -54.5,-131.93 -54.5,-207.27 0,-116.22 47.11,-221.44 123.28,-297.61 76.17,-76.17 181.39,-123.28 297.61,-123.28zm292.61 128.28c-74.88,-74.88 -178.34,-121.2 -292.61,-121.2 -114.27,0 -217.73,46.32 -292.61,121.2 -74.88,74.88 -121.2,178.34 -121.2,292.61 0,74.1 19.47,143.65 53.56,203.79 35.34,62.35 86.4,114.61 147.79,151.41 30.89,18.51 64.45,28.67 99.97,34.19 35.64,5.54 73.42,6.43 112.49,6.43 42.1,0 82.7,-1.77 120.84,-8.89 38,-7.1 73.66,-19.51 106.08,-40.81 57.31,-37.65 104.71,-89.17 137.44,-149.78 31.54,-58.41 49.45,-125.28 49.45,-196.35 0,-114.27 -46.32,-217.72 -121.2,-292.61z"/>
   <path class="fil1" d="M420.89 106.12c86.92,0 165.61,35.23 222.57,92.19 56.96,56.96 92.19,135.65 92.19,222.57 0,86.92 -35.23,165.61 -92.19,222.57 -56.96,56.96 -135.65,92.19 -222.57,92.19 -86.92,0 -165.61,-35.23 -222.57,-92.19 -56.96,-56.96 -92.19,-135.65 -92.19,-222.57 0,-86.92 35.23,-165.61 92.19,-222.57 56.96,-56.96 135.65,-92.19 222.57,-92.19zm219.74 95.02c-56.24,-56.24 -133.93,-91.02 -219.74,-91.02 -85.82,0 -163.51,34.78 -219.74,91.02 -56.24,56.24 -91.02,133.93 -91.02,219.74 0,85.81 34.78,163.51 91.02,219.74 56.24,56.24 133.93,91.02 219.74,91.02 85.81,0 163.51,-34.78 219.74,-91.02 56.24,-56.24 91.02,-133.93 91.02,-219.74 0,-85.82 -34.78,-163.51 -91.02,-219.74z"/>
   <path class="fil2" d="M116.86 657.12l23.66 -2.98 -6.27 23 2.17 2.49 24.24 -21.05 -2.53 -2.91 -18.74 16.27 5.48 -20 -1.56 -1.8 -20.57 2.61 18.74 -16.27 -2.53 -2.91 -24.25 21.05 2.17 2.49zm4.86 -20.07c7,-4.47 11.01,-13.62 4.96,-23.09 -6.05,-9.47 -16.03,-9.68 -23.03,-5.21 -7,4.47 -11.01,13.62 -4.96,23.09 6.05,9.47 16.03,9.68 23.03,5.21zm-15.98 -25.01c5.57,-3.56 13.15,-3.45 17.84,3.9 4.69,7.35 1.6,14.27 -3.96,17.83 -5.57,3.56 -13.15,3.45 -17.84,-3.9 -4.69,-7.35 -1.6,-14.27 3.96,-17.83zm-5.03 -8.22c9.56,-4.79 10.65,-15.21 7.01,-22.42 -1.55,-3.07 -3.7,-5.58 -6.13,-7.33l-3.44 1.74c2.39,1.26 4.43,3.57 5.92,6.52 3,5.94 2.55,14.18 -5.12,18.02 -8.21,4.1 -14.9,-0.27 -17.9,-6.21 -1.37,-2.7 -2.04,-5.75 -1.7,-8.55l-3.44 1.74c-0.05,3.06 0.71,6.17 2.16,9.04 3.77,7.45 12.68,12.45 22.64,7.46zm-1.81 -39.63l-13.25 5.99 -3.06 -6.77 8.92 -15.56 -1.81 -4.01 -10.11 17.61 -18.75 -3.5 1.82 4.01 16.65 3.09 3.01 6.65 -12.67 5.73 1.59 3.51 29.26 -13.23 -1.59 -3.51zm-23.97 -16.12c7.85,-2.69 13.91,-10.64 10.26,-21.27 -3.64,-10.63 -13.3,-13.19 -21.15,-10.5 -7.85,2.69 -13.91,10.64 -10.26,21.27 3.65,10.63 13.3,13.19 21.15,10.5zm-9.63 -28.08c6.25,-2.14 13.59,-0.25 16.42,8 2.83,8.24 -1.81,14.25 -8.05,16.39 -6.25,2.14 -13.59,0.25 -16.42,-8 -2.83,-8.24 1.81,-14.24 8.06,-16.39zm-18.06 -8.03l31.29 -7.22 -3.04 -13.19c-1.05,-4.56 -4.14,-11.19 -11.24,-9.55 -5.1,1.17 -6.31,5.32 -6.42,8.07 -1.28,-2.29 -4.11,-4.32 -8.08,-3.41 -5.28,1.22 -6.93,6.07 -5.46,12.46l2.96 12.83zm17.48 -26.07c5.14,-1.19 6.46,3.31 7.37,7.24l2 8.67 -10.82 2.5 -2.24 -9.7c-0.69,-2.99 -1.19,-7.59 3.69,-8.71zm-13.57 4.45c3.57,-0.82 5.53,1.74 6.29,5l2.26 9.79 -9.75 2.25 -2.02 -8.76c-1.02,-4.43 -0.49,-7.42 3.22,-8.28zm5.71 -12.63c10.61,-1.27 15.17,-10.71 14.18,-18.73 -0.42,-3.41 -1.59,-6.5 -3.28,-8.98l-3.83 0.48c1.82,1.99 2.96,4.86 3.37,8.13 0.82,6.6 -2.4,14.21 -10.92,15.22 -9.11,1.08 -13.92,-5.3 -14.74,-11.9 -0.37,-3 0.03,-6.1 1.29,-8.62l-3.82 0.48c-1.08,2.86 -1.42,6.05 -1.03,9.23 1.03,8.28 7.72,16 18.79,14.68zm12.01 -37.95l-14.53 0.41 -0.21 -7.43 14.24 -10.91 -0.13 -4.4 -16.12 12.34 -15.95 -10.47 0.12 4.4 14.17 9.28 0.21 7.29 -13.89 0.39 0.11 3.85 32.1 -0.91 -0.11 -3.85zm1.22 -53.33l-32.02 -2.44 -0.27 3.57 24.1 21.2c-0.91,-0.07 -1.83,-0.14 -2.75,-0.21l-22.82 -1.74 -0.29 3.84 32.02 2.44 0.27 -3.57 -24.15 -21.21c0.92,0.07 1.83,0.14 2.74,0.21l22.87 1.74 0.29 -3.84zm4.45 -31l-22.57 -4.1c-0.9,-0.16 -1.81,-0.33 -2.71,-0.49l21.82 23.59 -0.64 3.52 -31.59 -5.74 0.69 -3.79 22.52 4.09c0.9,0.16 1.81,0.33 2.71,0.49l-21.78 -23.59 0.64 -3.52 31.59 5.74 -0.69 3.79zm-37.11 -3.57l-3.52 -0.64c1.08,2.53 1.24,4.47 0.84,6.68 -0.4,2.21 -1.23,3.97 -3.13,5.96l3.52 0.64c1.81,-1.77 2.65,-3.81 3.05,-5.98 0.39,-2.17 0.33,-4.37 -0.75,-6.66zm43.27 -23.29l-27.37 -7.72 5.02 -17.79 27.37 7.72 1.05 -3.71 -30.9 -8.72 -7.11 25.21 30.9 8.72 1.05 -3.71zm-20.62 -41.22l29.84 11.86 8.1 -20.38 -3.41 -1.35 -6.68 16.79 -9.93 -3.95 6.07 -15.26 -3.41 -1.36 -6.07 15.26 -9.68 -3.85 6.58 -16.54 -3.41 -1.36 -8 20.12zm47.44 -11.25l-6.75 -3.43 11.59 -22.77 6.75 3.43 1.66 -3.27 -10.02 -5.1 -1.83 3.6 -25.35 -12.9 -8.94 17.58c8.79,4.47 18.18,10.49 22.97,17.56l-1.77 3.48 10.02 5.1 1.66 -3.27zm-27.83 -24.71l5.41 -10.63 22.08 11.23 -7.61 14.96c-4.19,-5.73 -12.37,-11.19 -19.87,-15.57zm37.46 -9.86l-4.73 -6.98 9.37 -14.54 8.31 1.42 2.24 -3.47 -34.55 -5.67 -2.31 3.59 19.41 29.15 2.26 -3.51zm-16.45 -24.19c-0.25,-0.38 -0.48,-0.69 -0.77,-1.09 0.49,0.1 0.87,0.18 1.32,0.25l16.71 2.86 -7.73 11.99 -9.53 -14zm36.73 -6.11l-22.35 -17.59 10.66 -13.56 -2.88 -2.27 -13.05 16.58 25.24 19.85 2.38 -3.03zm-0.86 -24.87c6.29,5.42 16.2,6.63 23.54,-1.89 7.33,-8.52 4.67,-18.14 -1.63,-23.56 -6.29,-5.42 -16.21,-6.63 -23.54,1.89 -7.33,8.52 -4.67,18.14 1.63,23.56zm19.37 -22.49c5.01,4.31 7.08,11.61 1.39,18.21 -5.69,6.61 -13.21,5.64 -18.21,1.33 -5.01,-4.31 -7.08,-11.61 -1.39,-18.21 5.69,-6.61 13.21,-5.64 18.21,-1.33zm22.68 1.1l-19.59 -20.62 12.51 -11.88 -2.53 -2.66 -15.3 14.53 22.11 23.28 2.79 -2.65zm37.47 -31.37l-19.85 -25.24 -2.81 2.21 0.68 32.09c-0.57,-0.72 -1.13,-1.44 -1.7,-2.16l-14.15 -17.99 -3.03 2.38 19.85 25.24 2.81 -2.21 -0.71 -32.13c0.57,0.72 1.14,1.44 1.7,2.16l14.18 18.03 3.03 -2.38zm26.43 -17.02l-17.29 -27.06 -3.25 2.07 8.54 13.38c-1.8,2.46 -3.97,4.44 -6.29,5.92 -4.55,2.85 -8.54,3.17 -11.3,-1.16l-5.61 -8.78 -3.25 2.07 5.51 8.62c3.9,6.11 9.61,6.7 15.85,2.83 2.51,-1.6 4.91,-3.73 7.06,-6.41l6.77 10.59 3.25 -2.07zm-7.16 -32.84l14.5 28.65 19.56 -9.9 -1.66 -3.27 -16.13 8.16 -4.83 -9.54 14.65 -7.42 -1.66 -3.27 -14.65 7.42 -4.7 -9.29 15.88 -8.04 -1.66 -3.28 -19.32 9.78zm31.52 1.95c3.85,9.97 14.12,12.06 21.64,9.13 3.2,-1.25 5.91,-3.15 7.89,-5.4l-1.4 -3.59c-1.48,2.25 -3.98,4.06 -7.05,5.27 -6.19,2.42 -14.36,1.18 -17.44,-6.83 -3.3,-8.56 1.7,-14.8 7.9,-17.22 2.82,-1.1 5.92,-1.48 8.67,-0.88l-1.4 -3.59c-3.04,-0.34 -6.21,0.11 -9.2,1.28 -7.78,3.04 -13.61,11.42 -9.6,21.82zm39.57 1.84l-4.74 -13.75 7.03 -2.42 14.67 10.32 4.16 -1.43 -16.6 -11.7 5.23 -18.35 -4.16 1.44 -4.62 16.29 -6.9 2.38 -4.53 -13.14 -3.64 1.26 10.46 30.36 3.64 -1.26zm51.53 -13.84l-7.22 -31.29 -3.49 0.8 -13.05 29.33c-0.21,-0.89 -0.41,-1.79 -0.62,-2.68l-5.15 -22.3 -3.75 0.87 7.22 31.29 3.49 -0.8 13.04 -29.37c0.21,0.89 0.41,1.79 0.62,2.68l5.16 22.35 3.75 -0.87zm31.09 -3.99l-2.83 -22.76c-0.11,-0.91 -0.23,-1.82 -0.34,-2.73l-16 27.87 -3.55 0.44 -3.96 -31.87 3.82 -0.47 2.82 22.71c0.11,0.91 0.23,1.82 0.34,2.73l16 -27.83 3.55 -0.44 3.96 31.87 -3.82 0.48zm-7.68 -36.49l-0.44 -3.55c-2.09,1.78 -3.89,2.52 -6.12,2.79 -2.23,0.28 -4.16,0.01 -6.62,-1.21l0.44 3.55c2.23,1.2 4.43,1.39 6.61,1.12 2.19,-0.27 4.27,-0.99 6.14,-2.7zm35.22 35.26l-0.81 -28.43 17.24 -0.49 -0.1 -3.67 -21.09 0.6 0.91 32.1 3.85 -0.11zm19.52 -15.92c-0.63,8.28 4.27,16.98 15.48,17.83 11.21,0.85 17.37,-7.01 18,-15.28 0.63,-8.28 -4.28,-16.98 -15.48,-17.83 -11.21,-0.85 -17.37,7.01 -18,15.28zm29.59 2.25c-0.5,6.59 -5.14,12.58 -13.83,11.92 -8.69,-0.66 -12.37,-7.29 -11.87,-13.88 0.5,-6.59 5.14,-12.58 13.84,-11.92 8.69,0.66 12.37,7.29 11.87,13.88zm9.56 1.68c-1.95,10.51 5.69,17.68 13.64,19.12 3.39,0.61 6.68,0.42 9.55,-0.46l0.69 -3.79c-2.44,1.14 -5.52,1.37 -8.77,0.79 -6.54,-1.19 -12.85,-6.53 -11.27,-14.96 1.69,-9.02 9.21,-11.71 15.76,-10.52 2.98,0.54 5.82,1.85 7.84,3.8l0.69 -3.79c-2.41,-1.88 -5.35,-3.16 -8.51,-3.74 -8.21,-1.49 -17.58,2.59 -19.62,13.55zm43.57 18.27l17.97 -20.73 -3.98 -1.11 -14.31 16.71 -5.25 -22.2 -4.11 -1.15 6.39 26.28 -0.85 1c-2.92,3.09 -5.12,2.95 -7.37,2.32 -1.24,-0.35 -2.44,-0.97 -3.37,-1.57l-0.98 3.49c1.21,0.77 2.65,1.41 4.02,1.8 3.4,0.95 7.27,0.42 11.84,-4.82zm8.48 17.29l2.8 -7.04 23.74 9.44 -2.8 7.03 3.41 1.36 4.15 -10.44 -3.75 -1.49 10.51 -26.43 -18.33 -7.29c-3.64,9.17 -8.77,19.07 -15.37,24.5l-3.62 -1.44 -4.15 10.44 3.41 1.36zm22.04 -29.99l11.08 4.41 -9.15 23.02 -15.6 -6.2c5.32,-4.7 10,-13.35 13.67,-21.22zm13.36 36.16l6.19 -5.71 15.77 7.1 -0.17 8.43 3.76 1.69 0.46 -35 -3.89 -1.75 -25.93 23.54 3.81 1.71zm21.47 -19.87c0.34,-0.3 0.61,-0.58 0.97,-0.92 -0.02,0.49 -0.04,0.88 -0.05,1.34l-0.33 16.95 -13.01 -5.86 12.42 -11.51zm23.8 6.48l-16.03 27.82 3.34 1.92 5.68 -9.86 6.16 3.55c6.44,3.71 12.97,4.78 16.98,-2.18 4.01,-6.95 -0.19,-12.07 -6.63,-15.79l-9.5 -5.47zm12.75 19.31c-2.7,4.69 -7.08,3.65 -11.61,1.04l-6.32 -3.64 6.69 -11.6 6.32 3.64c4.57,2.63 7.65,5.84 4.92,10.57zm4.48 10.21c-6.24,8.68 -2.36,18.42 4.21,23.1 2.8,2 5.87,3.22 8.84,3.65l2.24 -3.14c-2.7,-0.01 -5.58,-1.1 -8.27,-3.02 -5.42,-3.86 -8.85,-11.37 -3.84,-18.33 5.36,-7.45 13.32,-6.68 18.74,-2.82 2.47,1.76 4.48,4.15 5.48,6.78l2.24 -3.14c-1.38,-2.73 -3.49,-5.13 -6.11,-7 -6.8,-4.84 -17.01,-5.13 -23.52,3.92zm35.15 5.34l-2.39 2.78 8.55 7.36 -18.56 21.55 2.92 2.51 18.56 -21.55 8.55 7.36 2.39 -2.78 -20.02 -17.24zm26.14 22.56l-23.28 22.11 9.32 9.81c3.22,3.39 9.25,7.54 14.54,2.52 3.79,-3.6 2.73,-7.78 1.43,-10.22 2.27,1.32 5.73,1.64 8.69,-1.17 3.92,-3.73 2.89,-8.75 -1.63,-13.51l-9.06 -9.55zm-1.81 31.33c-3.83,3.63 -7.25,0.43 -10.03,-2.5l-6.13 -6.45 8.05 -7.64 6.86 7.22c2.12,2.23 4.88,5.94 1.25,9.38zm9.43 -10.72c-2.66,2.53 -5.65,1.32 -7.95,-1.11l-6.92 -7.29 7.25 -6.89 6.19 6.52c3.13,3.29 4.19,6.14 1.43,8.76zm15.05 3.62l-24.24 21.05 14.37 16.56 2.77 -2.41 -11.85 -13.65 8.07 -7.01 10.77 12.4 2.77 -2.41 -10.77 -12.4 7.86 -6.83 11.67 13.44 2.77 -2.41 -14.2 -16.35zm33.2 42.89l-11.53 8.24 -11.07 -15.49 11.53 -8.24 -2.24 -3.13 -26.13 18.67 2.24 3.14 11.61 -8.29 11.07 15.49 -11.61 8.29 2.24 3.14 26.12 -18.67 -2.24 -3.14zm19.5 32.93l-12.27 7.1 -9.54 -16.48 12.27 -7.1 -1.93 -3.34 -27.79 16.08 1.93 3.34 12.35 -7.14 9.54 16.48 -12.35 7.15 1.93 3.34 27.79 -16.08 -1.93 -3.33zm-17.88 37.15c2.7,6.92 7.14,11.84 14.61,8.92 7.48,-2.92 7.36,-9.53 4.66,-16.45l-2.59 -6.62 10.64 -4.16 -1.4 -3.59 -29.91 11.69 3.99 10.21zm13.26 -12.82l2.65 6.79c1.9,4.87 2.32,9.34 -2.72,11.31 -5.08,1.99 -7.79,-1.54 -9.71,-6.45l-2.65 -6.79 12.43 -4.86zm-5.62 32.39l29.91 -11.69 -1.4 -3.59 -29.91 11.69 1.4 3.59zm9.51 29.84l22.08 -6.23c0.88,-0.25 1.77,-0.5 2.65,-0.75l-29.97 -11.61 -0.97 -3.44 30.9 -8.72 1.05 3.71 -22.03 6.21c-0.88,0.25 -1.77,0.5 -2.65,0.75l29.92 11.63 0.97 3.44 -30.91 8.72 -1.05 -3.71zm34.91 -13.09l3.45 -0.97c-2.08,-1.8 -3.08,-3.47 -3.69,-5.63 -0.61,-2.16 -0.63,-4.11 0.2,-6.73l-3.45 0.97c-0.85,2.39 -0.71,4.58 -0.11,6.71 0.6,2.12 1.63,4.07 3.6,5.66zm-19.96 47.82l26.51 7.07 -0.74 -4.06 -21.29 -5.55 17.66 -14.44 -0.76 -4.2 -20.83 17.26 -1.27 -0.33c-4.05,-1.27 -4.89,-3.31 -5.31,-5.61 -0.23,-1.26 -0.2,-2.62 -0.07,-3.72l-3.57 0.65c-0.16,1.43 -0.11,3 0.15,4.4 0.63,3.48 2.8,6.72 9.52,8.53zm28.87 37.36l-14.13 1.08 -1.45 -18.98 14.13 -1.08 -0.29 -3.84 -32.02 2.44 0.29 3.84 14.23 -1.08 1.44 18.98 -14.22 1.08 0.29 3.84 32.02 -2.44 -0.29 -3.84zm-32.16 41.46l32.1 0.91 0.1 -3.58 -25.09 -20.03c0.92,0.03 1.83,0.05 2.75,0.08l22.88 0.65 0.11 -3.85 -32.1 -0.91 -0.1 3.58 25.13 20.03c-0.92,-0.02 -1.84,-0.05 -2.75,-0.08l-22.93 -0.65 -0.11 3.85zm31.35 12.39l-31.87 -3.96 -1.67 13.43c-0.58,4.64 0.04,11.93 7.28,12.83 5.19,0.65 7.75,-2.83 8.8,-5.38 0.42,2.59 2.37,5.47 6.42,5.97 5.37,0.67 8.59,-3.32 9.4,-9.83l1.62 -13.06zm-25.36 18.49c-5.24,-0.65 -4.93,-5.33 -4.43,-9.33l1.1 -8.83 11.02 1.37 -1.23 9.88c-0.38,3.05 -1.49,7.53 -6.45,6.92zm14.27 0.48c-3.64,-0.45 -4.6,-3.53 -4.19,-6.85l1.24 -9.97 9.92 1.23 -1.11 8.92c-0.56,4.51 -2.09,7.14 -5.87,6.67zm6.61 15.86l-31.28 -7.25 -4.95 21.36 3.57 0.83 4.08 -17.61 10.41 2.41 -3.71 16 3.58 0.83 3.71 -16 10.14 2.35 -4.02 17.34 3.57 0.83 4.89 -21.09zm-6.81 29.03l-30.92 -8.68 -1.04 3.71 10.95 3.08 -1.92 6.85c-2.01,7.16 -1.43,13.75 6.3,15.92 7.73,2.17 11.65,-3.16 13.66,-10.31l2.96 -10.56zm-15.57 17.12c-5.21,-1.46 -5.28,-5.96 -3.87,-11l1.97 -7.02 12.9 3.62 -1.97 7.02c-1.43,5.08 -3.77,8.85 -9.03,7.38zm-8.57 7.09c-9.91,-3.99 -18.45,2.09 -21.44,9.59 -1.27,3.2 -1.73,6.47 -1.44,9.45l3.58 1.43c-0.64,-2.62 -0.26,-5.68 0.96,-8.75 2.46,-6.18 8.94,-11.31 16.89,-8.09 8.51,3.43 9.66,11.34 7.2,17.52 -1.12,2.82 -2.96,5.34 -5.28,6.94l3.58 1.42c2.32,-1.99 4.15,-4.62 5.34,-7.6 3.09,-7.76 0.94,-17.74 -9.41,-21.91zm-38.85 48.03l28.62 14.56 1.62 -3.19 -14.1 -28.84c0.82,0.42 1.63,0.83 2.45,1.25l20.4 10.38 1.75 -3.43 -28.62 -14.56 -1.62 3.19 14.14 28.86c-0.82,-0.42 -1.63,-0.83 -2.45,-1.25l-20.44 -10.4 -1.75 3.43zm24.88 21.8l-3.08 -1.99 -6.11 9.49 -23.91 -15.4 -2.09 3.24 23.91 15.4 -6.11 9.49 3.08 1.99 14.31 -22.21zm-17.95 27.42l-26.15 -18.63 -12.72 17.86 2.99 2.13 10.48 -14.72 8.71 6.2 -9.53 13.38 2.99 2.13 9.53 -13.38 8.48 6.04 -10.32 14.5 2.99 2.13 12.56 -17.64zm-16.49 22.29l-2.78 -2.39 -7.36 8.55 -21.55 -18.56 -2.52 2.92 21.55 18.56 -7.36 8.55 2.78 2.39 17.24 -20.02z"/>
   <path class="fil2" d="M363.97 664.78c-1.55,-0.07 -3.22,-0.17 -5,-0.28 -1.78,-0.11 -3.54,-0.2 -5.28,-0.28 -1.74,-0.07 -3.44,-0.13 -5.11,-0.17 -1.67,-0.04 -3.17,-0.06 -4.5,-0.06 -3.48,0 -6.74,0.07 -9.77,0.22 -3.04,0.15 -6.11,0.33 -9.22,0.56l0 -0.78c2.07,-0.3 3.85,-0.63 5.33,-1 1.48,-0.37 2.7,-0.91 3.66,-1.61 0.96,-0.7 1.68,-1.65 2.17,-2.83 0.48,-1.18 0.76,-2.78 0.83,-4.78 0.07,-1.04 -0.02,-3.02 -0.28,-5.94 -0.26,-2.93 -0.57,-6.13 -0.94,-9.61 -0.37,-3.48 -0.76,-6.96 -1.17,-10.44 -0.41,-3.48 -0.72,-6.29 -0.94,-8.44 -0.07,-0.96 -0.2,-2.2 -0.39,-3.72 -0.19,-1.52 -0.37,-3.04 -0.56,-4.55 -0.19,-1.52 -0.35,-2.91 -0.5,-4.17 -0.15,-1.26 -0.22,-2.11 -0.22,-2.55l-0.44 0c-2.07,4.44 -3.7,8 -4.89,10.66 -1.18,2.67 -2.2,5 -3.05,7 -0.85,2 -1.72,3.96 -2.61,5.89 -0.89,1.92 -2.05,4.39 -3.5,7.39 -1.44,3 -3.31,6.83 -5.61,11.5 -2.3,4.67 -5.3,10.7 -9,18.1l-0.78 0c-4.29,-9.55 -8.74,-19.01 -13.33,-28.38 -4.59,-9.37 -9,-18.83 -13.22,-28.38l-0.33 0 -1.55 10.89c-0.44,3.11 -0.94,6.54 -1.5,10.28 -0.56,3.74 -1.13,7.27 -1.72,10.61 -0.44,2.66 -0.85,5.29 -1.22,7.88 -0.37,2.59 -0.59,4.52 -0.67,5.78 -0.07,1.33 0.06,2.57 0.39,3.72 0.33,1.15 0.98,2.17 1.94,3.05 0.96,0.89 2.3,1.65 4,2.28 1.7,0.63 3.89,1.06 6.55,1.28l0 0.89c-1.7,-0.15 -4.18,-0.3 -7.44,-0.45 -3.26,-0.15 -6.55,-0.22 -9.88,-0.22 -3.26,0 -6.17,0.07 -8.72,0.22 -2.56,0.15 -4.68,0.3 -6.39,0.45l0 -0.78c1.93,-0.3 3.67,-0.74 5.22,-1.33 1.56,-0.59 2.93,-1.48 4.11,-2.67 1.18,-1.18 2.18,-2.7 3,-4.55 0.82,-1.85 1.48,-4.22 2,-7.11l8 -46.54c-0.52,-1.19 -1,-2.33 -1.44,-3.44 -0.37,-0.89 -0.74,-1.8 -1.11,-2.72 -0.37,-0.92 -0.67,-1.61 -0.89,-2.05 -1.33,-2.81 -3.02,-4.87 -5.05,-6.16 -2.04,-1.3 -4.46,-2.13 -7.27,-2.5l0 -0.78c0.74,0.07 1.65,0.13 2.72,0.17 1.07,0.04 2.18,0.07 3.33,0.11 1.15,0.04 2.24,0.06 3.28,0.06 1.04,0 1.92,0 2.67,0 1.92,0 3.79,-0.02 5.61,-0.06 1.81,-0.04 3.39,-0.13 4.72,-0.28 2.3,5.04 4.59,10.26 6.89,15.66 2.3,5.41 4.61,10.83 6.94,16.27 2.33,5.44 4.65,10.87 6.94,16.27 2.3,5.4 4.55,10.59 6.78,15.55 2.52,-4.96 5.07,-10.11 7.66,-15.44 2.59,-5.33 5.16,-10.72 7.72,-16.16 2.56,-5.44 5.11,-10.87 7.66,-16.27 2.56,-5.41 5.09,-10.7 7.61,-15.88 0.59,0.07 1.32,0.13 2.17,0.17 0.85,0.04 1.74,0.07 2.67,0.11 0.93,0.04 1.81,0.07 2.67,0.11 0.85,0.04 1.57,0.05 2.17,0.05 2,0 3.8,-0.04 5.39,-0.11 1.59,-0.07 3.05,-0.19 4.39,-0.33l0 0.78c-2.3,0.22 -4.18,0.54 -5.66,0.94 -1.48,0.41 -2.68,0.98 -3.61,1.72 -0.93,0.74 -1.61,1.7 -2.05,2.89 -0.45,1.18 -0.7,2.67 -0.78,4.44 0,0.3 0.02,0.83 0.06,1.61 0.04,0.78 0.09,1.39 0.17,1.83 0.37,3.56 0.81,7.41 1.33,11.55 0.52,4.15 1.02,8.2 1.5,12.16 0.48,3.96 0.93,7.59 1.33,10.89 0.41,3.3 0.72,5.83 0.94,7.61 0.22,2.15 0.45,4.18 0.67,6.11 0.15,1.63 0.32,3.2 0.5,4.72 0.19,1.52 0.35,2.57 0.5,3.17 0.3,1.55 0.65,2.87 1.06,3.94 0.41,1.07 1.09,1.96 2.05,2.67 0.96,0.7 2.26,1.28 3.89,1.72 1.63,0.45 3.78,0.78 6.44,1l0 0.89zm103.63 0c-1.18,-0.07 -2.61,-0.15 -4.28,-0.22 -1.66,-0.07 -3.42,-0.13 -5.28,-0.17 -1.85,-0.04 -3.67,-0.07 -5.44,-0.11 -1.78,-0.04 -3.37,-0.06 -4.77,-0.06 -1.33,0 -2.85,0.02 -4.55,0.06 -1.7,0.04 -3.43,0.09 -5.16,0.17 -1.74,0.07 -3.44,0.13 -5.11,0.17 -1.67,0.04 -3.09,0.09 -4.28,0.17l0 -0.67c2.07,-0.3 3.91,-0.63 5.5,-1 1.59,-0.37 2.91,-0.91 3.94,-1.61 1.04,-0.7 1.85,-1.65 2.44,-2.83 0.59,-1.18 0.93,-2.78 1,-4.78 0.07,-1.11 0.11,-2.83 0.11,-5.16 0,-2.33 0,-4.9 0,-7.72 0,-2.81 0,-5.7 0,-8.66 0,-2.96 0,-5.63 0,-8l0 -3.11c0,-3.55 0,-7.39 0,-11.5 0,-4.11 -0.07,-7.72 -0.22,-10.83 -0.07,-2 -0.41,-3.63 -1,-4.89 -0.59,-1.26 -1.43,-2.28 -2.5,-3.05 -1.07,-0.78 -2.41,-1.33 -4,-1.67 -1.59,-0.33 -3.43,-0.54 -5.5,-0.61l-9.88 -0.22 -8.11 0.33c-2.3,0.07 -4.22,0.31 -5.78,0.72 -1.56,0.41 -2.81,1 -3.78,1.78 -0.96,0.78 -1.68,1.78 -2.17,3 -0.48,1.22 -0.76,2.72 -0.83,4.5 0,0.59 -0.02,1.15 -0.06,1.67 -0.04,0.52 -0.07,1.09 -0.11,1.72 -0.04,0.63 -0.06,1.35 -0.06,2.17 0,0.81 0,1.81 0,3l-0.11 16.88 0 5.11 0.11 12.55c0,2.37 0,4.78 0,7.22 0,2.44 0.07,4.29 0.22,5.55 0.15,1.55 0.45,2.87 0.89,3.94 0.45,1.07 1.17,1.96 2.17,2.67 1,0.7 2.35,1.28 4.05,1.72 1.7,0.44 3.89,0.78 6.55,1l0 0.78c-1.18,-0.07 -2.61,-0.15 -4.28,-0.22 -1.66,-0.07 -3.42,-0.13 -5.28,-0.17 -1.85,-0.04 -3.66,-0.07 -5.44,-0.11 -1.78,-0.04 -3.37,-0.06 -4.78,-0.06 -1.33,0 -2.85,0.02 -4.55,0.06 -1.7,0.04 -3.43,0.09 -5.16,0.17 -1.74,0.07 -3.44,0.13 -5.11,0.17 -1.66,0.04 -3.09,0.09 -4.28,0.17l0 -0.67c2.07,-0.3 3.91,-0.63 5.5,-1 1.59,-0.37 2.91,-0.91 3.95,-1.61 1.03,-0.7 1.85,-1.65 2.44,-2.83 0.59,-1.18 0.93,-2.78 1,-4.78 0.07,-1.55 0.11,-3.94 0.11,-7.16 0,-3.22 0,-6.66 0,-10.33 0,-3.67 0,-7.16 0,-10.5 0,-3.33 0,-5.89 0,-7.66 0,-1.78 0,-3.72 0,-5.83 0,-2.11 0,-4.24 0,-6.39 0,-2.15 -0.02,-4.22 -0.06,-6.22 -0.04,-2 -0.09,-3.78 -0.17,-5.33 -0.07,-2 -0.41,-3.59 -1,-4.78 -0.59,-1.19 -1.43,-2.13 -2.5,-2.83 -1.07,-0.7 -2.41,-1.24 -4,-1.61 -1.59,-0.37 -3.43,-0.7 -5.5,-1l0 -0.67c1.18,0 2.63,0.02 4.33,0.06 1.7,0.04 3.46,0.11 5.28,0.22 1.81,0.11 3.57,0.2 5.28,0.28 1.7,0.07 3.18,0.11 4.44,0.11l24.21 0.22 31.77 -0.22c1.48,0 3.07,-0.02 4.77,-0.06 1.7,-0.04 3.41,-0.09 5.11,-0.17 1.7,-0.07 3.31,-0.15 4.83,-0.22 1.52,-0.07 2.83,-0.15 3.94,-0.22l0 0.78c-2.3,0.22 -4.22,0.54 -5.78,0.94 -1.55,0.41 -2.81,0.98 -3.78,1.72 -0.96,0.74 -1.68,1.7 -2.17,2.89 -0.48,1.18 -0.76,2.67 -0.83,4.44 -0.07,1.26 -0.13,2.78 -0.17,4.55 -0.04,1.78 -0.06,3.85 -0.06,6.22l-0.11 20.44 0.11 16.33c0,2.37 0,4.78 0,7.22 0,2.44 0.07,4.29 0.22,5.55 0.15,1.55 0.44,2.87 0.89,3.94 0.44,1.07 1.17,1.96 2.17,2.67 1,0.7 2.35,1.28 4.05,1.72 1.7,0.44 3.89,0.78 6.55,1l0 0.78zm35.77 -22.88c0,2.37 0,4.78 0,7.22 0,2.44 0.07,4.29 0.22,5.55 0.15,1.55 0.44,2.87 0.89,3.94 0.44,1.07 1.17,1.96 2.16,2.67 1,0.7 2.35,1.28 4.06,1.72 1.7,0.44 3.89,0.78 6.55,1l0 0.78c-1.18,-0.07 -2.61,-0.15 -4.28,-0.22 -1.67,-0.07 -3.43,-0.13 -5.28,-0.17 -1.85,-0.04 -3.66,-0.07 -5.44,-0.11 -1.78,-0.04 -3.37,-0.06 -4.78,-0.06 -1.33,0 -2.85,0.02 -4.55,0.06 -1.7,0.04 -3.43,0.09 -5.16,0.17 -1.74,0.07 -3.44,0.13 -5.11,0.17 -1.67,0.04 -3.09,0.09 -4.28,0.17l0 -0.67c2.07,-0.3 3.91,-0.63 5.5,-1 1.59,-0.37 2.91,-0.91 3.94,-1.61 1.04,-0.7 1.85,-1.65 2.44,-2.83 0.59,-1.18 0.93,-2.78 1,-4.78 0,-0.74 0.02,-1.72 0.05,-2.94 0.04,-1.22 0.06,-2.61 0.06,-4.16 0,-1.56 0,-3.22 0,-5 0,-1.78 0,-3.55 0,-5.33l0 -18.22c0,-1.78 0,-3.69 0,-5.72 0,-2.04 0,-4.07 0,-6.11 0,-2.04 -0.02,-4.02 -0.06,-5.94 -0.04,-1.93 -0.09,-3.67 -0.17,-5.22 -0.07,-2 -0.37,-3.59 -0.89,-4.78 -0.52,-1.19 -1.28,-2.13 -2.28,-2.83 -1,-0.7 -2.28,-1.24 -3.83,-1.61 -1.55,-0.37 -3.37,-0.7 -5.44,-1l0 -0.89c1.63,0.15 3.63,0.26 6,0.33 2.37,0.07 4.81,0.15 7.33,0.22 2.52,0.07 4.96,0.11 7.33,0.11 2.37,0 4.41,0 6.11,0l15.99 -0.11c2,0 3.7,0 5.11,0 1.41,0 2.59,-0.07 3.55,-0.22 0.96,-0.15 1.76,-0.46 2.39,-0.94 0.63,-0.48 1.13,-1.17 1.5,-2.05l0.89 0.56c-0.45,1.7 -0.72,3.44 -0.83,5.22 -0.11,1.78 -0.24,3.07 -0.39,3.89 -0.07,0.81 -0.15,1.72 -0.22,2.72 -0.07,1 -0.13,2.02 -0.17,3.05 -0.04,1.04 -0.07,2.02 -0.11,2.94 -0.04,0.92 -0.05,1.68 -0.05,2.28l-1 0c-0.37,-4.15 -1.63,-7.39 -3.77,-9.72 -2.15,-2.33 -5.44,-3.54 -9.89,-3.61l-7.44 -0.11 -7.55 0c0,4.96 -0.02,9.12 -0.05,12.5 -0.04,3.37 -0.06,6.18 -0.06,8.44 0,2.26 0,4.07 0,5.44 0,1.37 0,2.55 0,3.55 0,1 0,1.94 0,2.83 0,0.89 0,1.96 0,3.22 0,1.26 0,2.83 0,4.72 0,1.89 0,4.31 0,7.27l0 5.22zm95.41 -42.1c1.04,-2.59 1.81,-4.7 2.33,-6.33 0.52,-1.63 0.78,-2.74 0.78,-3.33 0,-0.89 -0.22,-1.63 -0.67,-2.22 -0.45,-0.59 -1.02,-1.11 -1.72,-1.56 -0.7,-0.44 -1.48,-0.78 -2.33,-1 -0.85,-0.22 -1.72,-0.41 -2.61,-0.56l0 -0.67 12.88 0.67c3.04,0 6.05,-0.09 9.05,-0.28 3,-0.19 5.57,-0.35 7.72,-0.5l0 0.78c-4.22,0.45 -7.66,1.61 -10.33,3.5 -2.67,1.89 -4.78,4.61 -6.33,8.16l-22.88 52.98c-1.93,4.44 -3.81,8.02 -5.66,10.72 -1.85,2.7 -3.72,4.8 -5.61,6.28 -1.89,1.48 -3.81,2.46 -5.77,2.94 -1.96,0.48 -3.98,0.72 -6.06,0.72 -2.22,0 -4.15,-0.35 -5.77,-1.06 -1.63,-0.7 -2.98,-1.61 -4.05,-2.72 -1.08,-1.11 -1.85,-2.37 -2.33,-3.78 -0.48,-1.41 -0.68,-2.81 -0.61,-4.22 0,-0.52 0.11,-1.2 0.33,-2.06 0.22,-0.85 0.59,-1.7 1.11,-2.55 0.52,-0.85 1.26,-1.59 2.22,-2.22 0.96,-0.63 2.18,-0.94 3.66,-0.94 1.26,0 2.3,0.19 3.11,0.56 0.82,0.37 1.46,0.81 1.94,1.33 0.48,0.52 0.82,1.09 1,1.72 0.19,0.63 0.28,1.17 0.28,1.61 0.07,0.52 -0.05,1.17 -0.39,1.94 -0.33,0.78 -0.61,1.43 -0.83,1.94 -0.52,1.19 -0.46,2.37 0.17,3.56 0.63,1.18 1.8,1.78 3.5,1.78 1.55,0 3.09,-0.65 4.61,-1.94 1.52,-1.3 2.93,-2.85 4.22,-4.67 1.3,-1.81 2.44,-3.7 3.44,-5.66 1,-1.96 1.76,-3.61 2.28,-4.94 -0.81,-1.78 -1.85,-4.09 -3.11,-6.94 -1.26,-2.85 -2.68,-6 -4.28,-9.44 -1.59,-3.44 -3.26,-7.07 -5,-10.89 -1.74,-3.81 -3.48,-7.53 -5.22,-11.16 -1.74,-3.63 -3.44,-7.07 -5.11,-10.33 -1.66,-3.26 -3.17,-6.03 -4.5,-8.33 -1.26,-2.07 -3,-3.44 -5.22,-4.11 -2.22,-0.67 -4.78,-1.18 -7.66,-1.55l0 -1c1.26,0.07 2.72,0.17 4.39,0.28 1.67,0.11 3.39,0.2 5.16,0.28 1.78,0.07 3.5,0.13 5.17,0.17 1.66,0.04 3.13,0.06 4.39,0.06 0.44,0 1.3,0 2.55,0 1.26,0 2.7,-0.04 4.33,-0.11 1.63,-0.07 3.39,-0.15 5.28,-0.22 1.89,-0.07 3.68,-0.22 5.39,-0.45l0 0.89c-0.81,0.15 -1.66,0.3 -2.55,0.45 -0.89,0.15 -1.74,0.37 -2.56,0.67 -0.82,0.3 -1.48,0.69 -2,1.17 -0.52,0.48 -0.78,1.13 -0.78,1.94 0,0.45 0.04,0.78 0.11,1 0.59,2.81 1.59,6.02 3,9.61 1.41,3.59 2.94,7.28 4.61,11.05 1.67,3.78 3.39,7.52 5.16,11.22 1.78,3.7 3.33,7.07 4.67,10.11l13.11 -32.32z"/>
   <path class="fil1" d="M420.89 91.84c90.86,0 173.13,36.83 232.67,96.38 59.55,59.55 96.38,141.81 96.38,232.67 0,90.86 -36.83,173.13 -96.38,232.67 -59.55,59.55 -141.81,96.38 -232.67,96.38 -90.86,0 -173.13,-36.83 -232.67,-96.38 -59.55,-59.55 -96.38,-141.81 -96.38,-232.67 0,-90.86 36.83,-173.13 96.38,-232.67 59.55,-59.55 141.81,-96.38 232.67,-96.38zm227.67 101.38c-58.26,-58.27 -138.76,-94.3 -227.67,-94.3 -88.91,0 -169.41,36.04 -227.67,94.3 -58.27,58.26 -94.3,138.76 -94.3,227.67 0,88.91 36.04,169.41 94.3,227.67 58.26,58.27 138.76,94.3 227.67,94.3 88.91,0 169.41,-36.04 227.67,-94.3 58.27,-58.26 94.3,-138.76 94.3,-227.67 0,-88.91 -36.04,-169.41 -94.3,-227.67z"/>
   <path class="fil2" d="M560.59 334.3l0 1.6 15.7 -2.18 0 -2.03 -15.7 2.62zm100.11 209.99l-69.86 11.85 -339.9 0 -69.86 -11.85c-0.55,-1.06 -1.08,-2.13 -1.61,-3.2l71.69 12.16 339.48 0 71.68 -12.16c-0.53,1.07 -1.06,2.14 -1.61,3.2zm-498.64 -47.6l0 -129.37c0,-0.72 0.56,-1.32 1.29,-1.43l67.76 -34.83c0.16,-0.08 0.33,-0.13 0.5,-0.16l0 -8.54 -8.05 -0.3 0 -0.04 -0.09 -2.18 -2.67 1.35 -0.02 -2.18 -2.54 0.98 0 -7.9 12.81 -7.63 0 -29.54 32.66 -24.03 20.81 5.04c-0.21,-4.35 -0.55,-7.72 -0.82,-10.51 -0.84,-8.44 -1.18,-11.78 3.78,-19.94 0.6,-0.99 1.41,-2.08 2.45,-3.23 4.84,-11.18 13.75,-19.82 24.99,-26.47 0.05,-0.04 0.1,-0.08 0.16,-0.12 0.04,-0.03 11.82,-8 28.36,-14.02 1.67,-1.46 14.95,-12.56 38.33,-18.08 5,-1.18 9.58,-2.07 13.71,-2.74 0.13,-0.22 0.32,-0.41 0.56,-0.55 10.04,-5.57 24.81,-6.01 24.85,-6.01l0.12 0c0.04,0 14.81,0.44 24.85,6.01 0.25,0.14 0.44,0.33 0.56,0.55 4.12,0.67 8.7,1.56 13.71,2.74 23.38,5.52 36.65,16.61 38.33,18.08 16.54,6.02 28.31,13.99 28.36,14.02 0.05,0.04 0.11,0.08 0.16,0.12 11.24,6.65 20.15,15.29 24.99,26.47 1.04,1.15 1.85,2.24 2.45,3.23 4.95,8.16 4.62,11.5 3.77,19.94 -0.28,2.78 -0.62,6.15 -0.82,10.48l20.67 -5.01c10.89,8 21.77,16.02 32.66,24.03l0 29.53 12.81 7.64 0 7.9 -2.54 -0.98 -0.02 2.18 -2.67 -1.35 -0.09 2.17 0 0.05 -8.05 0.3 0 8.54c0.17,0.02 0.34,0.08 0.5,0.16l67.77 34.83c0.73,0.11 1.29,0.71 1.29,1.43l0 129.37c-0.97,3.31 -1.99,6.59 -3.08,9.84l0 -30.86 -55.76 -7.8 0 5.25 6.13 0.85 0 31.33 9.56 0.41 0 -27.46 -3.98 -0.53c-0.84,-0.11 -1.42,-0.84 -1.3,-1.63 0.12,-0.79 0.9,-1.34 1.74,-1.23l6.62 0.89 0 30.1 7.15 0.3 0 -26.49 -3.86 -0.48c-0.84,-0.1 -1.43,-0.83 -1.32,-1.62 0.11,-0.79 0.88,-1.34 1.72,-1.24l6.55 0.81 0 29.14 7.39 0.32 0 -25.95 -3.96 -0.5c-0.84,-0.1 -1.43,-0.83 -1.32,-1.62 0.11,-0.79 0.88,-1.34 1.72,-1.24l6.63 0.84 0 28.61 0.02 0 -0.02 0.42 0 0.49c0,0.11 -0.01,0.22 -0.04,0.32l-0.08 1.65 -11.58 -0.49c-0.1,0.02 -0.21,0.03 -0.32,0.03 -0.16,0 -0.31,-0.02 -0.45,-0.06l-23.95 -1.02 0 -31.59 -3.05 -0.42 0 37.14 -33.52 -0.42 0 28.6c0,0.84 -0.69,1.52 -1.54,1.52 -0.85,0 -1.54,-0.68 -1.54,-1.52l0 -97.42 -18.94 -0.36 0 4.66c0.25,0.33 0.36,0.75 0.25,1.18 -0.05,0.19 -0.13,0.36 -0.25,0.5l0 18.32c0.26,0.34 0.36,0.79 0.23,1.22 -0.05,0.17 -0.13,0.32 -0.23,0.46l0 71.52c0,0.81 -0.69,1.46 -1.54,1.46 -0.85,0 -1.54,-0.66 -1.54,-1.46l0 -22.17c-24.94,-0.6 -49.99,-0.42 -74.96,-0.25l-9.46 0.06 0 28.46 -21.13 0 0 -77.93 -4.93 0 0 -7.38c-8.22,-0.04 -16.09,-0.03 -23.33,-0.03l-14.99 0c-7.34,-0.01 -15.31,-0.01 -23.65,0.03l0 7.38 -1.54 0 -3.4 0 0 77.93 -21.13 0 0 -28.46 -9.46 -0.06c-24.97,-0.18 -50.02,-0.35 -74.96,0.25l0 22.17c0,0.81 -0.69,1.46 -1.54,1.46 -0.85,0 -1.54,-0.66 -1.54,-1.46l0 -97.86 -18.77 0.35 0 97.42c0,0.84 -0.69,1.52 -1.54,1.52 -0.85,0 -1.54,-0.68 -1.54,-1.52l0 -28.6 -33.52 0.42 0 -37.14 -3.05 0.42 0 31.59 -23.95 1.02c-0.14,0.04 -0.29,0.06 -0.45,0.06 -0.11,0 -0.21,-0.01 -0.32,-0.03l-11.58 0.49 -0.07 -1.65c-0.02,-0.1 -0.04,-0.21 -0.04,-0.32l0 -0.49 -0.02 -0.42 0.02 0 0 -28.61 6.63 -0.84c0.84,-0.11 1.61,0.45 1.72,1.24 0.11,0.79 -0.48,1.52 -1.32,1.62l-3.96 0.5 0 25.95 7.39 -0.32 0 -29.14 6.55 -0.81c0.84,-0.1 1.61,0.45 1.72,1.24 0.11,0.79 -0.48,1.51 -1.32,1.62l-3.86 0.48 0 26.49 7.15 -0.3 0 -30.1 6.62 -0.89c0.84,-0.11 1.62,0.44 1.74,1.23 0.12,0.79 -0.47,1.52 -1.3,1.63l-3.97 0.53 0 27.46 9.56 -0.41 0 -31.33 6.13 -0.85 0 -5.25 -55.76 7.8 0 30.86c-1.09,-3.25 -2.11,-6.54 -3.08,-9.84zm514.59 -23.94l0 -32.48 -61.14 -18.94 0.6 24.07 4.78 0.7 0 18.86 55.76 7.8zm0 -35.51l0 -39.65 -58.33 -25.98c-0.77,-0.34 -1.09,-1.2 -0.73,-1.92 0.36,-0.72 1.28,-1.03 2.04,-0.69l57.02 25.4 0 -17.18 -55.4 -28.47 0 0.81 0 5.9 0.01 0.33 -1.81 0.09c-0.08,0.04 -0.18,0.09 -0.3,0.12 -0.11,0.68 -1.66,1.05 -5.27,0.37l1.55 61.91 61.22 18.97zm0 -63.31l0 -5.68 -66.48 -34.17 0 5.77c0.17,0.02 0.34,0.08 0.5,0.16l65.98 33.91zm-14.84 22.84c-0.77,-0.32 -1.12,-1.18 -0.78,-1.9 0.35,-0.73 1.25,-1.05 2.03,-0.73l8.64 3.64 0 22.67c0,0.8 -0.69,1.44 -1.54,1.44 -0.33,0 -0.65,-0.1 -0.9,-0.27 -2.87,-0.83 -13.27,-4.53 -23.65,-8.28 -0.16,-0.03 -0.3,-0.09 -0.44,-0.16 -11.93,-4.31 -23.67,-8.63 -23.74,-8.65l-0.97 -0.36 0 -25.87c0,-0.8 0.69,-1.45 1.54,-1.45 0.85,0 1.54,0.65 1.54,1.45l0 23.9 8.75 3.21 0 -21.49 -6.74 -3.04c-0.76,-0.34 -1.09,-1.2 -0.72,-1.92 0.36,-0.72 1.28,-1.02 2.04,-0.68l8.5 3.83 0 24.42 9.04 3.3 0 -20.74 -6.66 -2.82c-0.77,-0.33 -1.12,-1.18 -0.77,-1.91 0.35,-0.73 1.26,-1.05 2.03,-0.72l8.47 3.59 0 23.72c3.11,1.13 6.2,2.25 9.04,3.28l0 -19.82 -6.72 -2.88c-0.77,-0.33 -1.11,-1.19 -0.76,-1.91 0.35,-0.72 1.26,-1.04 2.03,-0.71l8.52 3.65 0 22.77c4.05,1.45 7.33,2.61 9.04,3.18l0 -18.89 -6.81 -2.87zm-8.73 42.22c-0.81,-0.23 -1.27,-1.03 -1.02,-1.8 0.25,-0.76 1.1,-1.19 1.91,-0.96l6.39 1.84 0 22.72c0,0.7 -0.53,1.28 -1.23,1.42l-0 0 -0 0 -0.04 0.01 -0 0c-0.19,0.04 -0.4,0.04 -0.61,0l-10.08 -1.92 -0.06 0c-0.23,0 -0.45,-0.05 -0.65,-0.14l-23.75 -4.52 0 -24.88 -3.88 -1.13c-0.81,-0.23 -1.26,-1.04 -1.02,-1.8 0.25,-0.76 1.11,-1.19 1.92,-0.95l6.05 1.76 0 24.65 9.56 1.82 0 -20.63 -4.21 -1.21c-0.81,-0.23 -1.26,-1.04 -1.02,-1.8 0.25,-0.76 1.11,-1.19 1.92,-0.95l6.38 1.84 0 23.34 7.15 1.36 0 -19.77 -4.21 -1.21c-0.81,-0.23 -1.26,-1.04 -1.02,-1.8 0.25,-0.76 1.11,-1.19 1.92,-0.95l6.38 1.84 0 22.49 7.39 1.41 0 -18.85 -4.2 -1.21zm-65.7 5.17l0 30.46 30.44 2.49 0 -28.54 -22.39 -3.24 -0.03 0c-0.17,0 -0.33,-0.03 -0.48,-0.07l-7.54 -1.09zm0 33.36l0 32.35 9.32 0.12 0 -25.05 -5.07 -0.34c-0.85,-0.06 -1.48,-0.75 -1.42,-1.54 0.06,-0.8 0.8,-1.39 1.64,-1.34l7.93 0.53 0 27.77 8.96 0.11 0 -24.17 -4.83 -0.32c-0.85,-0.06 -1.48,-0.75 -1.42,-1.54 0.06,-0.8 0.8,-1.39 1.64,-1.34l7.69 0.51 0 26.9 6.01 0.07 0 -30.24 -30.44 -2.49zm-21.83 -36.82c7.62,0.16 13.5,0.4 18.87,0.79l-2.24 -97.99c-1.98,-0.39 -5.42,-0.97 -8.35,-0.9 -2.93,0.07 -5.39,0.57 -6.71,0.9l-1.49 92.31c0.03,0.16 0.03,0.33 -0.01,0.5l-0.07 4.4zm21.94 1.03c2.15,0.18 4.25,0.39 6.39,0.63l0.42 -88.85 1.12 -0.31c0.01,-0 3.39,-1.09 7.83,-1.2 3.11,-0.08 6.98,0.62 8.9,1.02l1.06 0.24 2.03 -0.1 -6.87 -2.93 -18.6 2.47 0 -1.66 0 -5.16 17.29 -2.75 0 -1.12 0.04 0.02 -0 -20.55 -27.73 -15.36 0 22.92 14.13 6.21 0 0.91 0 6.67 -0.01 -0.01 0.03 0.28 -8.28 0.78 2.24 97.84zm9.46 0.99c4.72,0.58 9.79,1.3 16.09,2.22l-2.23 -89.24c-1.92,-0.37 -5.01,-0.87 -7.48,-0.81 -2.54,0.06 -4.72,0.49 -5.97,0.79l-0.41 87.04zm-12.37 -101.67l0.01 0 3.65 -0.34 -10.6 -4.27 -19.64 2.73 1.44 93.72c1.1,0.34 2.15,0.68 3.17,1.03l1.49 -92.53 1.04 -0.35c0.01,-0 3.78,-1.21 8.63,-1.33 4.83,-0.12 10.8,1.33 10.82,1.34zm-22.1 100.2l0.07 -4.25c-25.71,-9.37 -83.62,-14.05 -141.58,-14.05 -58.07,0 -116.08,4.7 -141.72,14.1l0.07 4.73c0.01,0.06 0.01,0.12 0.01,0.18l0 5.3c0.83,-0.18 1.68,-0.36 2.53,-0.54l0 -8.22c0,-0.8 0.69,-1.45 1.54,-1.45 0.85,0 1.54,0.65 1.54,1.45l0 7.59c1.17,-0.23 2.35,-0.46 3.54,-0.68l0 -8.01c0,-0.8 0.69,-1.45 1.54,-1.45 0.85,0 1.54,0.65 1.54,1.45l0 7.45c1.17,-0.21 2.36,-0.41 3.54,-0.6l0 -7.94c0,-0.8 0.69,-1.45 1.54,-1.45 0.85,0 1.54,0.65 1.54,1.45l0 7.45c3.85,-0.6 7.77,-1.16 11.73,-1.67l0 -7.96c0,-0.8 0.69,-1.45 1.54,-1.45 0.85,0 1.54,0.65 1.54,1.45l0 7.57c1.34,-0.16 2.68,-0.32 4.02,-0.48l0 -7.93c0,-0.8 0.69,-1.45 1.54,-1.45 0.85,0 1.54,0.65 1.54,1.45l0 7.59c1.34,-0.15 2.68,-0.29 4.02,-0.42l0 -7.99c0,-0.8 0.69,-1.44 1.54,-1.44 0.85,0 1.54,0.65 1.54,1.44l0 7.69c1.34,-0.13 2.68,-0.26 4.02,-0.38l0 -7.78c0,-0.8 0.69,-1.45 1.54,-1.45 0.85,0 1.54,0.65 1.54,1.45l0 7.51c1.34,-0.12 2.69,-0.23 4.03,-0.33l0 -7.8c0,-0.8 0.69,-1.44 1.54,-1.44 0.85,0 1.54,0.65 1.54,1.44l0 7.56c1.34,-0.1 2.68,-0.2 4.02,-0.3l0 -7.89c0,-0.8 0.69,-1.45 1.54,-1.45 0.85,0 1.54,0.65 1.54,1.45l0 7.68c1.34,-0.09 2.69,-0.18 4.02,-0.26l0 -7.99c0,-0.8 0.69,-1.45 1.54,-1.45 0.85,0 1.54,0.65 1.54,1.45l0 7.8 0.77 -0.04 3.25 -0.18 0 -7.94c0,-0.8 0.69,-1.45 1.54,-1.45 0.85,0 1.54,0.65 1.54,1.45l0 7.78c8.4,-0.42 16.48,-0.71 24,-0.92l0 -7.8c0,-0.8 0.69,-1.45 1.54,-1.45 0.85,0 1.54,0.65 1.54,1.45l0 7.73c1.84,-0.04 3.65,-0.08 5.41,-0.12l0 -7.61c0,-0.8 0.69,-1.45 1.54,-1.45 0.85,0 1.54,0.65 1.54,1.45l0 7.55c1.86,-0.03 3.66,-0.06 5.41,-0.08l0 -7.47c0,-0.8 0.69,-1.45 1.54,-1.45 0.85,0 1.54,0.65 1.54,1.45l0 7.44c1.88,-0.02 3.69,-0.03 5.41,-0.04l0 -7.4c0,-0.8 0.69,-1.45 1.54,-1.45 0.85,0 1.54,0.65 1.54,1.45l0 7.38c2.06,-0.01 3.98,-0.01 5.75,-0.01 1.77,0 3.69,0 5.75,0.01l0 -7.38c0,-0.8 0.69,-1.45 1.54,-1.45 0.85,0 1.54,0.65 1.54,1.45l0 7.4c1.72,0.01 3.53,0.02 5.41,0.04l0 -7.44c0,-0.8 0.69,-1.45 1.54,-1.45 0.85,0 1.54,0.65 1.54,1.45l0 7.47c1.75,0.02 3.55,0.05 5.41,0.08l0 -7.55c0,-0.8 0.69,-1.45 1.54,-1.45 0.85,0 1.54,0.65 1.54,1.45l0 7.61c1.76,0.04 3.57,0.07 5.41,0.12l0 -7.73c0,-0.8 0.69,-1.45 1.54,-1.45 0.85,0 1.54,0.65 1.54,1.45l0 7.8c7.52,0.2 15.6,0.5 24,0.92l0 -7.78c0,-0.8 0.69,-1.45 1.54,-1.45 0.85,0 1.54,0.65 1.54,1.45l0 7.94 3.25 0.18 0.77 0.04 0 -7.8c0,-0.8 0.69,-1.45 1.54,-1.45 0.85,0 1.54,0.65 1.54,1.45l0 7.99c1.34,0.08 2.68,0.17 4.02,0.26l0 -7.68c0,-0.8 0.69,-1.45 1.54,-1.45 0.85,0 1.54,0.65 1.54,1.45l0 7.89c1.34,0.1 2.68,0.19 4.02,0.29l0 -7.56c0,-0.8 0.69,-1.44 1.54,-1.44 0.85,0 1.54,0.65 1.54,1.44l0 7.8c1.34,0.11 2.68,0.22 4.03,0.33l0 -7.5c0,-0.8 0.69,-1.45 1.54,-1.45 0.85,0 1.54,0.65 1.54,1.45l0 7.78c1.34,0.12 2.68,0.25 4.02,0.38l0 -7.69c0,-0.8 0.69,-1.44 1.54,-1.44 0.85,0 1.54,0.65 1.54,1.44l0 7.99c1.34,0.14 2.68,0.28 4.02,0.43l0 -7.59c0,-0.8 0.69,-1.45 1.54,-1.45 0.85,0 1.54,0.65 1.54,1.45l0 7.93c1.34,0.16 2.69,0.31 4.02,0.48l0 -7.57c0,-0.8 0.69,-1.45 1.54,-1.45 0.85,0 1.54,0.65 1.54,1.45l0 7.96c3.96,0.51 7.88,1.07 11.73,1.67l0 -7.45c0,-0.8 0.69,-1.45 1.54,-1.45 0.85,0 1.54,0.65 1.54,1.45l0 7.94c1.19,0.2 2.37,0.4 3.54,0.6l0 -7.45c0,-0.8 0.69,-1.45 1.54,-1.45 0.85,0 1.54,0.65 1.54,1.45l0 8.01c1.19,0.22 2.37,0.45 3.54,0.68l0 -7.59c0,-0.8 0.69,-1.45 1.54,-1.45 0.85,0 1.54,0.65 1.54,1.45l0 8.22c0.74,0.16 1.48,0.31 2.21,0.47l0 -5.23c0,-0.26 0.07,-0.5 0.19,-0.71zm47.67 -97.8l9.24 4.32 -9.21 -4.73 0 0.35 -0.03 0 0 0.05zm8.03 7.8l0 -0.81 -8.03 -3.76 0 1.14 8.03 3.43zm-25.32 -2.93l0 1.07 14.22 -1.89 0 -1.44 -14.22 2.26zm-16.55 -19.57l0 -1.05 0.01 0 0 -26.62 33.26 18.42 2.8 -0.1 0 -2.38 -3.05 -1.76 -0.18 2.6 -6.31 -3.16 0 -2.66 -2.26 -1.13 0 2.38 -6.8 -3.84 0 -2.91 -2.32 -1.16 0 2.11 -7.01 -3.36 0 -2.7 -3.79 -1.83 0 -4.9 2.67 0 0 -2.51 -7.15 0.79 0 -38.64 -16.93 4.1c1.45,1.99 2.03,3.48 2.21,4.04 3.65,3.25 6.3,6.58 7.94,9.9 9.27,18.77 -6.86,30.42 -10.92,32.98 0.66,3.23 0.28,6.21 -0.02,7.79l0.66 0.3 0.21 6.24c0.48,0.45 0.82,0.95 0.97,1.52 0.19,0.72 0.09,1.47 -0.37,2.24 -0.52,0.88 -1.49,1.55 -2.15,1.93l0.1 6.44 18.42 -3.07zm14.14 9.71l0 -1.38 -11.06 -4.86 0 1.79 11.06 4.45zm-4.03 -43.29l34.06 19.79 0 -1.28 -34.06 -20.28 0 1.76zm23.51 17.05l-25.17 -14.63 -1.01 0 0 0.26 3.79 1.83 0 2.68 0.86 0.41 0 -2.21 8.47 4.24 0 3.02 0.65 0.36 0 -2.09 8.41 4.2 0 2.66 0.48 0.24 0.2 -2.91 3.33 1.92zm-2.27 -9.59l0 -26.3 -28.39 -20.89 0 34.29 5.66 -0.62c7.58,4.5 15.16,9.01 22.73,13.53zm-127.49 -9.95c-0.06,0.06 -0.13,0.1 -0.19,0.15 -0.07,0.41 -0.23,0.84 -0.49,1.28 -0.6,1.05 -1.72,1.84 -2.46,2.29l0.21 35.91c0.13,-0.01 0.26,-0.01 0.4,0 6.62,0.88 12.95,1.8 19.21,2.83 6.03,1 12.08,2.12 18.38,3.44l0.37 -30.54c-1.24,-0.61 -3.08,-2.02 -2.17,-4.74l-7.03 1.23 0 -8.45 15.02 -2.78c-12.88,-4.29 -26.63,-7.28 -36.18,-9.07l0 4.23 -0.38 -0.04 -4.68 4.26zm-24.68 -4.77l-2.02 -0.22 0 0.81c0.61,-0.22 1.29,-0.42 2.02,-0.59zm-2.01 3.38l0 1.11c0,0.15 -0.02,0.3 -0.07,0.43 0.25,0.3 0.63,0.38 0.76,0.4 1.14,-0.54 5.17,-2.2 11.87,-2.2 5.46,0 8.37,1.57 9.76,2.69 0.37,-0.26 0.78,-0.6 1,-0.99 0.16,-0.28 0.14,-0.5 -0.02,-0.67 -0.52,-0.55 -1.7,-1.02 -3.26,-1.39 -1.76,-0.42 -3.91,-0.68 -6.15,-0.8 -5.98,-0.31 -12.57,0.2 -13.88,1.42zm-3.07 -0.71l-0.01 -6.13 1.18 0.13 0 -3.42 -30.61 -0.79 -30.6 0.79 0 3.38 0.87 -0.09 -0.01 6.13c0.04,0.09 0.08,0.18 0.1,0.27 1.01,3.47 -1.32,4.66 -2.7,5.06l1.66 124.58c4.22,-0.12 8.46,-0.22 12.73,-0.29l0 -18.11 0 -2.89 0 -21.84c-0.12,-2.01 0,-7.55 4.38,-11.89 2.68,-2.66 5.65,-4.02 8.15,-4.72 2.51,-0.7 4.55,-0.73 5.41,-0.73 0.87,0 2.91,0.03 5.42,0.73 2.51,0.7 5.47,2.06 8.15,4.72 4.38,4.34 4.5,9.88 4.38,11.89l0 21.84 0 2.89 0 18.11c4.16,0.07 8.3,0.16 12.42,0.28l1.66 -124.58c-1.38,-0.4 -3.72,-1.6 -2.7,-5.06 0.03,-0.09 0.06,-0.18 0.1,-0.27zm103.24 24.8l0.01 -0.4 -14.67 0.51 0.01 0.41 14.66 -0.52zm0.19 -3.29c-1.95,-2.95 -5.02,-5.67 -8.83,-8.16l0.07 3.49 -3.21 -2.12c0.03,0.23 0.03,0.46 0,0.7 -0.06,0.45 -0.22,0.9 -0.48,1.35 -0.58,0.98 -1.7,1.73 -2.47,2.17l0.04 3.1 14.89 -0.52zm-22.04 -14.94c-1.59,-0.66 -3.23,-1.31 -4.89,-1.92l-17.44 3.22 0 2.6 22.33 -3.9zm-0.29 2.98c1.2,0.16 2.37,0.36 3.44,0.6l-1.44 -0.95 -2 0.35zm7.55 20.2l0.02 1.75c1.06,-0.11 3.16,-0.27 6.7,-0.27 5,0 9.66,0.85 10.57,1.03 0.31,-0.18 0.71,-0.46 0.92,-0.8 0.05,-0.08 0.07,-0.13 0.07,-0.14 -0.06,-0.22 -0.5,-0.49 -1.2,-0.78 -1,-0.42 -2.37,-0.76 -3.93,-1 -4.67,-0.73 -10.65,-0.66 -13.15,0.22zm-3.07 -0.68c-0.02,-0.12 -0.02,-0.24 -0.01,-0.35l-0.14 -10.11c-0.88,-0.6 -3.14,-1.81 -7.2,-1.95 -4.18,-0.15 -8.12,0.6 -9.98,1.03l-1.42 116.7c7.24,0.86 14.03,1.82 20.25,2.9l-1.51 -108.21zm-18.64 -14.05c1.64,-0.4 6.35,-1.42 11.4,-1.25 4.72,0.16 7.63,1.67 8.92,2.54 0.35,-0.22 0.78,-0.54 1.03,-0.96 0.07,-0.11 0.1,-0.21 0.11,-0.28l0.01 -0.01c-0.23,-0.54 -1.17,-1.06 -2.52,-1.53 -2.65,-0.93 -6.56,-1.43 -10.3,-1.5 -3.69,-0.06 -7.14,0.29 -8.93,1.08 -0.42,0.18 -0.67,0.33 -0.7,0.42 -0.32,0.92 0.63,1.36 0.98,1.49zm21.78 19.37l1.45 103.44c5.85,1.08 11.15,2.27 15.81,3.56l-1.64 -106.49c-1.8,-0.3 -5.3,-0.79 -8.96,-0.79 -3.82,0 -5.83,0.18 -6.66,0.28zm-23.93 16.52c-6.35,-1.34 -12.57,-2.49 -18.87,-3.53 -6.29,-1.04 -12.56,-1.95 -19.06,-2.82l0.11 18.55c0.09,-0 0.18,0 0.27,0.01 6.62,0.88 12.95,1.8 19.21,2.83 5.94,0.98 11.91,2.09 18.12,3.38l0.22 -18.43zm-0.26 21.38c-5.24,-1.1 -10.4,-2.08 -15.59,-2.97 0.62,0.43 1.2,0.9 1.74,1.38 3.49,3.12 5.47,7.21 6.09,10.05 1.04,4.73 0.65,8.89 0.65,8.9 -0.06,0.8 -0.8,1.4 -1.64,1.34 -0.45,-0.03 -0.85,-0.24 -1.1,-0.55 -0.3,0.37 -0.8,0.59 -1.33,0.55 -0.85,-0.06 -1.48,-0.75 -1.42,-1.55 0,-0.01 0.31,-3.3 -0.51,-7.04 -0.47,-2.15 -1.73,-5.42 -4.36,-7.91 -1.77,-1.68 -4.2,-3.01 -7.47,-3.39 -6.87,-0.8 -11.4,4.3 -12.55,5.77l0.01 2.06c1.4,-2.49 3.46,-4.35 5.81,-5.44 1.88,-0.88 3.95,-1.26 6.01,-1.09 2.07,0.17 4.11,0.91 5.92,2.26 3.32,2.48 5.88,7.07 6.35,14.16 0.16,2.41 0.21,8.18 0.21,14.81 0,11.46 -0.16,25.49 -0.2,29.13 4.33,0.39 8.54,0.81 12.63,1.27l0.75 -61.74zm-60.51 57.69c6.87,0.22 13.64,0.51 20.27,0.87l-0.31 -54c-0.07,-0.23 -0.07,-0.48 -0.01,-0.72l-0.4 -70.76c-0.56,-0.57 -2.52,-2.06 -7.94,-2.06 -5.23,0 -8.54,1.07 -9.95,1.65l-1.67 125.01zm23.34 1.04l1.59 0.09 0 -16.93 -1.69 -0.13 0.1 16.97zm-0.11 -19.87l0 0 1.7 0.13 0 -20.69 -1.82 -0.14 0.12 20.7zm-0.13 -23.59l0.14 0.01 1.74 0.13c0.04,-0.45 0.11,-1 0.24,-1.59l-2.13 -1.39 0.02 2.85zm-0.12 -21.55l0.02 4.35c1.18,-1.15 3.14,-2.64 5.95,-3.54 -1.98,-0.28 -3.97,-0.55 -5.97,-0.82zm29.71 159.4l0 -31.44c0,-0.39 -0.04,-0.74 -0.12,-1.03 -0.23,-0.88 -0.81,-1.46 -1.52,-1.82 -0.81,-0.42 -1.81,-0.57 -2.72,-0.57 -0.27,0 -0.54,0.01 -0.78,0.04l0.11 34.85 5.04 -0.03zm-4.11 -37.75c1.29,0.03 2.7,0.3 3.93,0.92 1.42,0.72 2.57,1.89 3.04,3.67 0.14,0.53 0.22,1.11 0.22,1.72l0 31.43 3.51 -0.01 0 -32.92c0,-1.02 -0.41,-3.28 -1.95,-4.86 -0.9,-0.93 -2.25,-1.62 -4.22,-1.62l-0.05 0c-2.35,0 -3.71,0.79 -4.48,1.67zm-3.99 37.8l-0.12 -35.6c-0.01,-0.32 0.22,-2.08 1.44,-3.67 1.21,-1.57 3.36,-3.07 7.14,-3.09l0.05 -0.01c2.96,0 5.04,1.09 6.48,2.56 2.18,2.24 2.76,5.39 2.76,6.8l0 32.92 3.42 -0.01 0 -51.63c-8.17,-0.6 -16.7,-1.03 -25.33,-1.34l0 53.08 4.15 -0.03zm56.44 -34.87c0,-0.8 0.69,-1.44 1.54,-1.44 0.85,0 1.54,0.65 1.54,1.44l0 35.11 3.79 0.08 0 -46.28c-3.76,-0.92 -7.9,-1.74 -12.33,-2.46l0 48.5c1.82,0.03 3.65,0.06 5.47,0.09l0 -35.05zm-63.66 -34.8c0,-0.8 0.69,-1.45 1.54,-1.45 0.85,0 1.54,0.65 1.54,1.45l0 13.74c8.61,0.31 17.14,0.74 25.33,1.33l0 -13.09c0,-0.8 0.69,-1.45 1.54,-1.45 0.85,0 1.54,0.65 1.54,1.45l0 13.32c8.38,0.66 16.36,1.49 23.64,2.56l0 -13.69c0,-0.8 0.69,-1.45 1.54,-1.45 0.85,0 1.54,0.65 1.54,1.45l0 14.17c4.42,0.71 8.55,1.51 12.33,2.41l0 -16.99c-3.41,-0.75 -6.93,-1.46 -10.53,-2.11 -0.09,-0.01 -0.18,-0.03 -0.27,-0.05 -2,-0.36 -4.02,-0.71 -6.07,-1.04l-0.13 0.01c-0.22,0 -0.44,-0.04 -0.63,-0.13 -11.26,-1.81 -23.15,-3.2 -35.03,-4.26 -0.14,0.04 -0.29,0.06 -0.45,0.06 -0.26,0 -0.5,-0.06 -0.71,-0.17 -2.01,-0.18 -4.01,-0.34 -6.02,-0.5 -0.12,0.03 -0.24,0.04 -0.37,0.04 -0.22,0 -0.42,-0.04 -0.61,-0.12 -5.41,-0.42 -10.79,-0.78 -16.08,-1.08 -26.29,-1.51 -50.31,-1.68 -64.44,-1.68 -14.12,0 -38.14,0.17 -64.43,1.68 -5.28,0.3 -10.66,0.66 -16.08,1.08 -0.19,0.08 -0.39,0.12 -0.61,0.12 -0.13,0 -0.25,-0.01 -0.37,-0.04 -2,0.16 -4.01,0.33 -6.02,0.5 -0.21,0.11 -0.46,0.17 -0.71,0.17 -0.16,0 -0.3,-0.02 -0.45,-0.06 -11.88,1.06 -23.77,2.45 -35.03,4.26 -0.19,0.08 -0.41,0.13 -0.63,0.13l-0.13 -0.01c-2.04,0.33 -4.07,0.68 -6.07,1.04 -0.09,0.02 -0.17,0.04 -0.27,0.05 -3.71,0.68 -7.33,1.4 -10.84,2.18l0 16.99c3.77,-0.91 7.91,-1.72 12.33,-2.43l0 -14.22c0,-0.8 0.69,-1.45 1.54,-1.45 0.85,0 1.54,0.65 1.54,1.45l0 13.74c7.28,-1.08 15.25,-1.92 23.64,-2.58l0 -13.35c0,-0.8 0.69,-1.45 1.54,-1.45 0.85,0 1.54,0.65 1.54,1.45l0 13.11c8.18,-0.6 16.71,-1.03 25.32,-1.35l0 -13.75c0,-0.8 0.69,-1.45 1.54,-1.45 0.85,0 1.54,0.65 1.54,1.45l0 13.64c22.3,-0.74 44.98,-0.72 63.6,-0.71l14.99 0c18.54,-0.02 41.1,-0.04 63.29,0.7l0 -13.63zm0 69.72l0 -53.21c-2.98,-0.1 -5.97,-0.18 -8.96,-0.26l0 6.97 -1.54 0 -3.4 0 0 46.6 9.45 -0.06 4.44 -0.03zm31.48 -51.53l0 51.4c7.88,0 15.77,0.04 23.64,0.13l0 -48.94c-7.26,-1.08 -15.24,-1.92 -23.64,-2.59zm-68.36 2.14l1.86 0 1.54 0 19.59 0 1.86 0 0 -3.36 -24.84 0 0 3.36zm19.91 2.89l-14.97 0 0 75.04 14.97 0 0 -75.04zm5.9 -95.7c0.25,-0.4 0.56,-0.78 0.91,-1.11l-1.17 -2.38c-0.48,0.77 -0.88,1.62 -1.18,2.55l1.44 0.94zm3.66 -2.4c0.31,-0.05 0.64,-0.07 0.99,-0.07 0.79,0 1.5,0.1 2.15,0.27l2.31 -2.62c-0.4,-0.39 -0.84,-0.76 -1.33,-1.08 -0.59,-0.39 -1.5,-0.84 -2.56,-0.97 -0.73,-0.09 -1.55,-0.02 -2.4,0.33 -0.08,0.04 -0.17,0.06 -0.25,0.08 -0.23,0.16 -0.45,0.32 -0.67,0.5l1.76 3.56zm5.85 1.66c0.19,0.18 0.38,0.36 0.55,0.56 0.33,0.37 0.61,0.78 0.85,1.2l1.19 -0.47c-0.18,-0.64 -0.4,-1.28 -0.67,-1.89 -0.15,-0.35 -0.31,-0.69 -0.49,-1.02l-1.43 1.63zm2.4 4.49c0.11,0.59 0.17,1.15 0.19,1.66l0.71 0.05c-0.02,-0.66 -0.06,-1.34 -0.14,-2.01l-0.76 0.3zm0.91 28.2l-0.72 -0.05 0 16.7 -0.01 0.13 0.72 0.06 0 -16.84zm-3.79 -0.28l-7.31 -0.55 0 16.89c2.46,0.16 4.9,0.32 7.31,0.5l0 -16.84zm-7.31 -3.45l7.31 0.55 0 -20.69 -7.32 -0.55 0 20.69zm10.39 0.78l0.72 0.05 0 -20.69 -0.72 -0.05 0 20.69zm-10.38 -24.36l7.28 0.55c-0.08,-1.14 -0.43,-2.53 -1.3,-3.52 -0.64,-0.72 -1.61,-1.23 -3.05,-1.23 -2.38,0 -2.84,2.82 -2.93,4.2zm14.17 44.4l1.89 0.16c0.05,-3.97 0.2,-17.66 0.2,-28.86 0,-6.54 -0.06,-12.23 -0.21,-14.64 -0.41,-6.16 -2.5,-10.05 -5.2,-12.07 -0.64,-0.48 -1.31,-0.85 -2,-1.12 1.67,1.39 2.87,3.15 3.7,5.07 1.18,2.74 1.61,5.8 1.61,8.52l0 42.94zm3.24 -100.19l-5.67 -1.15 0 8.34 5.67 0.94 0 -8.13zm-8.74 -1.78l-5.75 -1.17 0 8.68 5.75 0.95 0 -8.46zm-5.75 -4.12l5.75 1.17 0 -5.97 -5.75 -1.2 0 6zm8.83 1.8l5.67 1.15 0 -5.92 -5.67 -1.18 0 5.95zm8.74 -5.93l0 21.6 -20.65 -3.42 0 -23.65 20.65 4.31 0 1.15zm35.25 -39.76l-0.04 10.51 2.81 1.49 0 -10.63 -2.77 -1.37zm-3.11 10.97l0.07 -15.73 8.89 4.39 0 15.75 0.02 0.01 0 4.05 2.46 1.43 0 -4.06 2.53 1.94c0.01,0.01 4.12,3 7.69,8.96 0.1,0.17 0.2,0.34 0.29,0.51 2.36,-2.72 6.59,-8.26 7.52,-13.97 0.53,-3.25 0.24,-5.56 -0.26,-7.14l-5.38 -4.87 0.13 -2.36 -0.28 -0.29 -0.23 1.58 -5.83 -4.34 0.12 -2.41 -6.7 -4.27 -0.16 2.34 -8.03 -3.31 0 -2.78 -9.05 -3.5 0 2.69 -10.23 -3.39 0 -2.79 -12.16 -3.27 0 3.12 -12.97 -2.75 0 -3.24 -16.58 -2.95 0 3.43 -14.22 -1.5 -0.12 -3.92 -17.73 -1.02 -0.25 3.29 -16.28 -0.39 0 -3.19 -14.59 0 0 3.19 -16.28 0.39 -0.25 -3.29 -17.73 1.02 -0.12 3.92 -14.23 1.5 0 -3.43 -16.58 2.95 0 3.24 -12.97 2.75 0 -3.12 -12.16 3.27 0 2.79 -10.23 3.39 0 -2.69 -9.05 3.5 0 2.78 -8.03 3.31 -0.16 -2.34 -6.7 4.27 0.12 2.41 -5.83 4.34 -0.23 -1.58 -0.28 0.29 0.13 2.36 -5.38 4.87c-0.5,1.58 -0.79,3.89 -0.26,7.14 0.92,5.71 5.16,11.25 7.52,13.97 0.09,-0.17 0.19,-0.34 0.29,-0.51 3.57,-5.95 7.68,-8.95 7.69,-8.96l2.53 -1.94 0 4.06 2.46 -1.43 0 -4.05 0.02 -0.01 0 -15.75 8.89 -4.39 0.01 2.38 0.06 13.35 0.01 -0.01 0 3.82 2.4 -0.94 0 -3.98 0.04 -0.01 0.07 -16.29 14.72 -6.06 -0.02 2.22 -0.13 15.05 0.02 -0.01 0 3.93 4.39 -1.3 0 -4.16 0.01 -0 0 -17.1 16.73 -4.16 0 1.87 0 15.5 0.02 -0.01 0 3.47 6.44 -1.2 0 -3.72 0.01 -0 -0.07 -17.2 19.91 -3.31 0 1.72 0 16.4 -0.04 0.01 0 3.09 7.5 -0.53 0 -3.09 -0.01 0 0.1 -18.51 1.4 -0.11 20.67 -1.62 0 18.24 0 0 0 3.17 9.55 -0.24 0 -2.92 -0.01 0 0 -18.94 1.54 0 19.16 0 0 18.94 -0.02 0 0 2.92 9.55 0.24 0 -3.17 0 0 0 -18.24 1.66 0.13 20.41 1.6 0.1 18.51 -0.01 0 0 3.09 7.5 0.53 0 -3.09 -0.04 -0.01 0 -1.22 0 -16.91 19.91 3.31 -0.07 17.2 0.01 0 0 3.72 6.44 1.2 0 -3.47 0.02 0.01 0 -0.64 0 -16.73 16.73 4.16 0 17.1 0.01 0 0 4.16 4.39 1.3 0 -3.93 0.01 0.01 -0.15 -17.27 14.72 6.06 0.07 16.29 0.04 0.01 0 3.98 2.4 0.94 0 -3.82 0.01 0.01zm-14.15 -19.05l0.1 12.01 8.51 2.97 -0.05 -11.46 -8.56 -3.52zm-21.02 -6.21l0 11.89 10.58 2.71 0 -11.97 -10.58 -2.63zm-26.31 -4.89l0 12.25 13.71 2.2 0.05 -12.16 -13.76 -2.29zm-13.68 -1.7l-15.95 -1.25 0 12.97 16.02 1.04 -0.07 -12.75zm-294.73 220.68l55.76 -7.8 0 -18.86 4.78 -0.7 0.6 -24.07 -61.14 18.94 0 32.48zm0 -35.51l61.22 -18.97 1.55 -61.91c-3.59,0.67 -5.11,0.3 -5.2,-0.38 -0.11,-0.03 -0.2,-0.07 -0.27,-0.11l-1.91 -0.09 0.02 -0.33 0 -1.95 0 -4.76 -55.4 28.47 0 17.18 57.02 -25.4c0.77,-0.34 1.68,-0.03 2.04,0.69 0.36,0.72 0.03,1.58 -0.73,1.92l-58.33 25.98 0 39.64zm0 -63.3l65.98 -33.91c0.16,-0.08 0.33,-0.13 0.5,-0.16l0 -5.77 -66.48 34.17 0 5.68zm13.59 20.21c0.77,-0.32 1.68,0 2.03,0.73 0.34,0.73 -0,1.58 -0.77,1.9l-6.81 2.87 0 18.89c1.71,-0.57 4.99,-1.73 9.04,-3.18l0 -22.77 8.52 -3.65c0.77,-0.33 1.68,-0.01 2.03,0.71 0.35,0.72 0.01,1.58 -0.76,1.91l-6.72 2.88 0 19.82c2.84,-1.03 5.92,-2.15 9.04,-3.28l0 -23.72 8.47 -3.59c0.77,-0.33 1.68,-0 2.03,0.72 0.35,0.73 0,1.58 -0.77,1.91l-6.66 2.82 0 20.74 9.04 -3.3 0 -24.42 8.5 -3.83c0.76,-0.34 1.68,-0.04 2.04,0.68 0.36,0.72 0.04,1.58 -0.72,1.92l-6.74 3.04 0 21.49 8.75 -3.21 0 -23.9c0,-0.8 0.69,-1.45 1.54,-1.45 0.85,0 1.54,0.65 1.54,1.45l0 25.87 -0.97 0.36c-0.07,0.02 -11.81,4.34 -23.74,8.65 -0.13,0.07 -0.28,0.13 -0.44,0.16 -10.38,3.75 -20.78,7.45 -23.65,8.28 -0.25,0.17 -0.56,0.27 -0.9,0.27 -0.85,0 -1.54,-0.65 -1.54,-1.44l0 -22.67 8.63 -3.64zm9.09 42.1c0.81,-0.23 1.66,0.2 1.91,0.96 0.25,0.76 -0.21,1.57 -1.02,1.8l-4.2 1.21 0 18.85 7.39 -1.41 0 -22.49 6.38 -1.84c0.81,-0.23 1.67,0.19 1.92,0.95 0.25,0.76 -0.21,1.57 -1.02,1.8l-4.21 1.21 0 19.77 7.15 -1.36 0 -23.34 6.38 -1.84c0.81,-0.23 1.67,0.19 1.92,0.95 0.25,0.76 -0.21,1.57 -1.02,1.8l-4.21 1.21 0 20.63 9.56 -1.82 0 -24.65 6.06 -1.76c0.81,-0.23 1.67,0.19 1.92,0.95 0.25,0.76 -0.21,1.57 -1.01,1.8l-3.88 1.13 0 24.88 -23.75 4.52c-0.2,0.09 -0.42,0.14 -0.65,0.14l-0.06 -0 -10.08 1.92c-0.21,0.04 -0.41,0.04 -0.61,-0l0 -0 -0.04 -0.01 -0 -0 -0.01 0c-0.7,-0.14 -1.22,-0.72 -1.22,-1.42l0 -22.72 6.39 -1.84zm66.59 7.93l-7.54 1.09c-0.15,0.05 -0.31,0.07 -0.48,0.07l-0.03 0 -22.38 3.24 0 28.54 30.44 -2.49 0 -30.46zm0 33.36l-30.44 2.49 0 30.24 6.01 -0.07 0 -26.9 7.69 -0.51c0.85,-0.06 1.58,0.54 1.64,1.34 0.06,0.8 -0.58,1.49 -1.42,1.54l-4.83 0.32 0 24.17 8.96 -0.11 0 -27.77 7.93 -0.53c0.85,-0.05 1.58,0.54 1.64,1.34 0.06,0.8 -0.58,1.49 -1.42,1.54l-5.07 0.34 0 25.05 9.32 -0.12 0 -32.35zm21.82 -36.82l-1.57 -97.21c-1.32,-0.33 -3.78,-0.83 -6.7,-0.9 -2.94,-0.07 -6.38,0.51 -8.35,0.9l-2.24 97.99c5.36,-0.39 11.24,-0.63 18.86,-0.79zm-21.93 1.03l2.23 -97.84 -8.28 -0.78 0.03 -0.28 -0.01 0.01 0 -2.19 0 -5.39 14.13 -6.21 0 -22.92 -27.73 15.36 -0 20.55 0.04 -0.02 0 1.12 17.29 2.75 0 1.22 0 5.61 -18.6 -2.47 -6.87 2.93 2.03 0.1 1.07 -0.24c1.92,-0.4 5.79,-1.1 8.89,-1.02 4.44,0.11 7.82,1.2 7.83,1.2l1.12 0.31 0.42 88.85c2.14,-0.24 4.24,-0.45 6.4,-0.63zm-9.46 0.99l-0.41 -87.04c-1.25,-0.3 -3.43,-0.73 -5.97,-0.79 -2.47,-0.06 -5.57,0.44 -7.48,0.81l-2.23 89.24c6.3,-0.92 11.38,-1.64 16.09,-2.22zm34.35 -8.75c0.96,-0.33 1.95,-0.66 2.99,-0.98l1.44 -93.84 -19.47 -2.7 -10.6 4.27 3.65 0.34 0.01 -0c0.02,-0 5.99,-1.45 10.82,-1.34 4.85,0.12 8.62,1.33 8.63,1.33l1.04 0.35 1.49 92.58zm-47.55 -86.15l0 -1.14 -8.03 3.76 0 0.81 8.03 -3.43zm0 -4.37l0 -0.05 -0.03 0 0 -0.35 -9.21 4.73 9.24 -4.32zm17.29 5.93l0 -1.07 -14.22 -2.26 0 1.44 14.22 1.89zm13.47 -15.37l0 -1.79 -11.06 4.86 0 1.38 11.06 -4.45zm3.08 -6.32l0.01 -0 0 1.05 18.24 3.04 0.1 -6.41c-0.66,-0.38 -1.63,-1.04 -2.15,-1.92 -0.45,-0.78 -0.56,-1.52 -0.37,-2.24 0.15,-0.57 0.49,-1.08 0.97,-1.52l0.21 -6.24 0.95 -0.44c-0.3,-1.61 -0.64,-4.51 0,-7.66 -4.05,-2.55 -20.19,-14.21 -10.92,-32.98 1.64,-3.32 4.29,-6.65 7.94,-9.9 0.19,-0.56 0.76,-2.04 2.19,-4.01l-17.05 -4.13 0 38.64 -7.15 -0.79 0 2.51 2.67 0 0 4.9 -3.79 1.83 0 2.7 -7.01 3.36 0 -2.11 -2.32 1.16 0 2.91 -6.8 3.84 0 -2.38 -2.26 1.13 0 2.66 -6.31 3.16 -0.18 -2.6 -3.05 1.76 0 2.38 2.8 0.1 33.26 -18.42 0 26.62zm15.71 8.2l0 -1.6 -15.7 -2.62 0 2.03 15.7 2.18zm-24.14 -38.3l-25.14 14.61 3.3 -1.9 0.2 2.91 0.48 -0.24 0 -2.66 8.41 -4.2 0 2.09 0.64 -0.36 0 -3.02 8.47 -4.24 0 2.21 0.86 -0.41 0 -2.68 3.79 -1.83 0 -0.26 -1.01 0zm-35.72 17.37l34.05 -19.79 0 -1.76 -34.05 20.28 0 1.28zm41.21 -59.52l-28.4 20.89 0 26.32 22.73 -13.54 5.66 0.62 0 -34.29zm94.27 33.02l-0.09 0.01 0 -0.1 -0.18 -0.16 0.18 -0.02 0 -3.95c-9.58,1.8 -23.38,4.81 -36.29,9.11l14.82 2.74 0 8.45 -7.03 -1.23c0.91,2.72 -0.93,4.12 -2.17,4.74l0.37 30.53c6.3,-1.32 12.35,-2.44 18.38,-3.44 6.26,-1.03 12.59,-1.95 19.21,-2.83 0.13,-0.02 0.27,-0.02 0.39,-0l0.21 -35.91c-0.74,-0.44 -1.85,-1.24 -2.46,-2.28 -0.26,-0.44 -0.42,-0.87 -0.49,-1.28 -0.07,-0.04 -0.13,-0.09 -0.19,-0.15l-4.65 -4.23zm29.33 -0.54c0.73,0.17 1.41,0.37 2.01,0.59l0 -0.81 -2.02 0.22zm2.08 4.92c-0.04,-0.14 -0.07,-0.28 -0.07,-0.43l0 -1.11c-1.31,-1.22 -7.9,-1.73 -13.87,-1.42 -2.25,0.11 -4.39,0.38 -6.15,0.8 -1.57,0.37 -2.74,0.84 -3.27,1.39 -0.16,0.17 -0.19,0.39 -0.02,0.67 0.22,0.39 0.63,0.73 1,0.99 1.38,-1.12 4.29,-2.69 9.76,-2.69 6.7,0 10.73,1.66 11.87,2.2 0.13,-0.02 0.51,-0.1 0.76,-0.4zm-100.25 22.16l0.01 0.4 14.65 0.52 0.01 -0.41 -14.67 -0.51zm14.71 -2.37l0.04 -3.1c-0.77,-0.43 -1.89,-1.19 -2.47,-2.17 -0.27,-0.45 -0.43,-0.9 -0.48,-1.34 -0.03,-0.24 -0.03,-0.47 0,-0.71l-3.21 2.12 0.07 -3.28c-3.67,2.44 -6.62,5.1 -8.52,7.97l14.58 0.51zm12.26 -17.34c-1.66,0.62 -3.29,1.26 -4.88,1.92l22.11 3.86 0 -2.6 -17.22 -3.19zm-4.82 4.87l-2 -0.35 -1.44 0.95c1.08,-0.25 2.24,-0.45 3.44,-0.6zm-4.47 19.18c0.01,0.12 0.01,0.23 -0,0.35l-1.51 108.27c6.23,-1.08 13.01,-2.06 20.25,-2.92l-1.42 -116.73c-1.86,-0.42 -5.8,-1.17 -9.98,-1.03 -4.06,0.14 -6.32,1.35 -7.2,1.95l-0.14 10.11zm-3.08 1.03c-2.5,-0.88 -8.48,-0.95 -13.15,-0.22 -1.55,0.24 -2.93,0.58 -3.93,1 -0.7,0.3 -1.15,0.57 -1.21,0.78 -0,0.01 0.02,0.06 0.07,0.14 0.2,0.34 0.61,0.62 0.92,0.8 0.91,-0.18 5.57,-1.03 10.57,-1.03 3.54,0 5.65,0.16 6.7,0.27l0.02 -1.75zm21.71 -14.72c0.35,-0.13 1.3,-0.56 0.98,-1.49 -0.03,-0.1 -0.28,-0.24 -0.7,-0.42 -1.8,-0.79 -5.24,-1.14 -8.93,-1.08 -3.74,0.06 -7.65,0.57 -10.3,1.5 -1.35,0.47 -2.28,0.99 -2.52,1.53l0.01 0.01c0.01,0.07 0.05,0.17 0.11,0.28 0.25,0.42 0.68,0.74 1.03,0.96 1.29,-0.86 4.2,-2.37 8.92,-2.54 5.06,-0.18 9.76,0.84 11.4,1.25zm-21.77 19.37c-0.83,-0.1 -2.84,-0.28 -6.66,-0.28 -3.66,0 -7.16,0.49 -8.96,0.79l-1.64 106.57c4.64,-1.3 9.95,-2.5 15.81,-3.59l1.45 -103.5zm23.93 16.52l0.22 18.43c6.2,-1.29 12.18,-2.4 18.12,-3.38 6.26,-1.04 12.59,-1.96 19.21,-2.83 0.09,-0.01 0.18,-0.01 0.27,-0.01l0.1 -18.55c-6.49,0.86 -12.77,1.78 -19.06,2.82 -6.3,1.04 -12.52,2.2 -18.87,3.53zm0.26 21.38l0.75 61.77c4.09,-0.46 8.3,-0.89 12.63,-1.28 -0.04,-3.6 -0.2,-17.67 -0.2,-29.15 0,-6.63 0.06,-12.4 0.21,-14.81 0.47,-7.09 3.02,-11.68 6.35,-14.16 1.81,-1.35 3.85,-2.08 5.92,-2.26 2.06,-0.17 4.12,0.21 6.01,1.09 2.35,1.09 4.41,2.95 5.81,5.44l0.01 -2.06c-1.15,-1.47 -5.68,-6.57 -12.55,-5.77 -3.27,0.38 -5.69,1.71 -7.47,3.39 -2.63,2.49 -3.89,5.77 -4.36,7.91 -0.82,3.74 -0.51,7.03 -0.51,7.04 0.06,0.8 -0.57,1.49 -1.42,1.55 -0.53,0.04 -1.02,-0.19 -1.33,-0.55 -0.26,0.31 -0.65,0.52 -1.1,0.55 -0.85,0.06 -1.58,-0.54 -1.64,-1.34 0,-0.01 -0.39,-4.16 0.65,-8.9 0.62,-2.84 2.6,-6.92 6.09,-10.05 0.54,-0.49 1.12,-0.95 1.74,-1.38 -5.19,0.89 -10.35,1.87 -15.59,2.97zm60.51 57.7l-1.66 -125.02c-1.41,-0.58 -4.73,-1.65 -9.95,-1.65 -5.42,0 -7.39,1.49 -7.94,2.06l-0.4 70.76c0.07,0.24 0.06,0.49 -0,0.72l-0.31 54.01c6.63,-0.36 13.41,-0.65 20.27,-0.87zm-23.34 1.05l0.1 -16.98 -1.69 0.13 0 16.95 1.59 -0.09zm0.11 -19.88l0.12 -20.7 -1.83 0.14 0 20.69 1.7 -0.13 0 0zm0.13 -23.59l0.02 -2.85 -2.13 1.39c0.13,0.59 0.2,1.14 0.23,1.59l1.75 -0.13 0.13 -0.01zm0.1 -17.2l0.02 -4.35c-2.01,0.27 -4,0.54 -5.97,0.82 2.81,0.9 4.77,2.39 5.95,3.54zm-32.77 155.03l0 -31.43c0,-0.62 0.08,-1.19 0.22,-1.72 0.47,-1.78 1.63,-2.95 3.04,-3.67 1.23,-0.62 2.65,-0.89 3.93,-0.92 -0.77,-0.88 -2.13,-1.66 -4.48,-1.67l-0.05 0.01c-1.97,0 -3.31,0.69 -4.22,1.62 -1.53,1.58 -1.95,3.84 -1.95,4.86l0 32.92 3.51 0.01zm8.23 -34.81c-0.25,-0.02 -0.51,-0.04 -0.79,-0.04 -0.91,0 -1.91,0.16 -2.72,0.57 -0.71,0.36 -1.29,0.95 -1.52,1.82 -0.08,0.3 -0.12,0.64 -0.12,1.03l0 31.44 5.04 0.03 0.11 -34.85zm-14.81 34.79l0 -32.92c0,-1.41 0.58,-4.56 2.76,-6.8 1.44,-1.48 3.51,-2.56 6.48,-2.56l0.05 0c3.78,0.02 5.94,1.52 7.14,3.09 1.22,1.59 1.45,3.35 1.45,3.66l-0.12 35.6 4.15 0.03 0 -53.07c-8.63,0.32 -17.16,0.75 -25.32,1.35l0 51.61 3.42 0.01zm-41.76 -34.79c0,-0.8 0.69,-1.44 1.54,-1.44 0.85,0 1.54,0.65 1.54,1.44l0 35.05c1.82,-0.03 3.64,-0.06 5.47,-0.09l0 -48.45c-4.44,0.73 -8.58,1.56 -12.33,2.49l0 46.2 3.79 -0.08 0 -35.11zm66.74 -18.28l0 53.2 4.44 0.03 9.45 0.06 0 -46.6 -4.93 0 0 -6.96c-2.99,0.07 -5.98,0.16 -8.96,0.26zm-31.48 53.06l0 -51.37c-8.41,0.67 -16.39,1.52 -23.64,2.61l0 48.9c7.87,-0.1 15.76,-0.13 23.64,-0.13zm43.51 -49.25l1.86 0 1.54 0 19.59 0 1.86 0 0 -3.36 -24.84 0 0 3.36zm19.91 2.89l-14.97 0 0 75.04 14.97 0 0 -75.04zm-20.88 -95.7l1.44 -0.94c-0.3,-0.94 -0.7,-1.79 -1.18,-2.55l-1.18 2.38c0.36,0.33 0.66,0.71 0.91,1.11zm-3.66 -2.4l1.76 -3.56c-0.22,-0.18 -0.44,-0.34 -0.67,-0.5 -0.09,-0.02 -0.17,-0.04 -0.25,-0.08 -0.85,-0.35 -1.66,-0.42 -2.39,-0.33 -1.07,0.13 -1.98,0.59 -2.57,0.97 -0.48,0.32 -0.93,0.68 -1.33,1.08l2.31 2.62c0.65,-0.17 1.36,-0.27 2.15,-0.27 0.35,0 0.68,0.02 0.99,0.07zm-5.85 1.66l-1.43 -1.63c-0.18,0.33 -0.34,0.67 -0.49,1.02 -0.26,0.61 -0.48,1.25 -0.67,1.89l1.19 0.47c0.24,-0.42 0.52,-0.82 0.85,-1.2 0.17,-0.19 0.36,-0.38 0.55,-0.56zm-2.4 4.49l-0.76 -0.3c-0.08,0.68 -0.13,1.36 -0.14,2.01l0.71 -0.05c0.01,-0.51 0.07,-1.07 0.19,-1.66zm-0.91 25.3l0.72 -0.05 0 -20.69 -0.72 0.05 0 20.69zm3.8 -0.28l7.31 -0.55 0 -20.69 -7.32 0.55 0 20.69zm7.31 2.35l-7.31 0.55 0 16.86c2.41,-0.18 4.85,-0.34 7.31,-0.5l0 -16.91zm-10.39 0.78l-0.72 0.05 0 16.86 0.73 -0.06c-0.01,-0.05 -0.01,-0.1 -0.01,-0.16l0 -16.7zm3.09 -26.71l7.28 -0.55c-0.09,-1.39 -0.56,-4.2 -2.93,-4.2 -1.44,0 -2.41,0.51 -3.05,1.23 -0.87,0.99 -1.23,2.38 -1.3,3.52zm-6.89 43.88l0 -42.97c0,-2.71 0.43,-5.78 1.61,-8.52 0.83,-1.92 2.03,-3.68 3.7,-5.07 -0.69,0.27 -1.36,0.64 -2,1.12 -2.7,2.02 -4.79,5.91 -5.19,12.07 -0.16,2.41 -0.21,8.11 -0.21,14.64 -0,11.23 0.15,24.95 0.2,28.88l1.89 -0.16zm-3.24 -103.18l5.67 -1.15 0 -5.95 -5.67 1.18 0 5.92zm8.74 -1.78l5.75 -1.17 0 -6 -5.75 1.2 0 5.97zm5.75 1.78l-5.75 1.17 0 8.46 5.75 -0.95 0 -8.68zm-8.83 1.8l-5.67 1.15 0 8.13 5.67 -0.94 0 -8.34zm-8.74 11l0 -21.04 20.65 -4.31 0 23.65 -20.65 3.42 0 -1.72zm217.06 -22.9c0.05,-1.52 -0.09,-3.35 -0.69,-5.19 -0.05,-0.1 -0.09,-0.21 -0.11,-0.32 -0.25,-0.71 -0.58,-1.41 -0.99,-2.1 -1.53,-2.56 -3.16,-4.51 -4.46,-5.86l0 2.8 -8.61 -5.03 0 -3.92 -2.83 -1.39 0 3.4 -8.55 -3.36 0 -3.89 -8.55 -2.97 0 3.72 -10.54 -3.12 0 -4.02 -10.61 -2.46 0 3.31 -12.59 -2.35 0 -3.6 -13.66 -1.93 0 3.27 -13.65 -0.97 0 -3.8 -16.02 -0.9 0 3.07 -15.7 -0.4 0 -3.46 -14.51 0 0 3.46 -15.7 0.4 0 -3.07 -16.02 0.9 0 3.8 -13.65 0.97 0 -3.27 -13.66 1.93 0 3.6 -12.59 2.35 0 -3.31 -10.61 2.46 0 4.02 -10.54 3.12 0 -3.72 -8.55 2.97 0 3.89 -8.55 3.36 0 -3.4 -2.83 1.39 0 3.92 -8.61 5.03 0 -2.8c-1.3,1.35 -2.93,3.31 -4.46,5.86 -0.41,0.69 -0.74,1.4 -0.99,2.11 -0.02,0.1 -0.06,0.21 -0.11,0.31 -0.6,1.84 -0.74,3.67 -0.69,5.2 5.63,-7.58 17.58,-13.59 30.71,-18.19 14.68,-5.14 30.84,-8.56 41.11,-10.44l1.83 -0.33 0 4.52 27.49 -2.81 0 -4.07c23.69,-0.62 43.68,-0.62 67.36,0l0 4.07 27.49 2.81 0 -4.52 1.83 0.33c10.27,1.88 26.44,5.3 41.11,10.44 13.13,4.6 25.08,10.6 30.71,18.18zm-162.53 158.26c-0.51,-0.63 -0.39,-1.54 0.29,-2.02 0.67,-0.48 1.64,-0.36 2.15,0.27 0.01,0.01 3.41,4.31 6.49,4.31 0.78,0 1.76,-0.74 3.02,-1.7 2.93,-2.22 7.09,-5.37 15.75,-5.37 8.67,0 12.82,3.15 15.75,5.37 1.26,0.96 2.24,1.7 3.03,1.7 3.07,0 6.48,-4.3 6.49,-4.31 0.51,-0.63 1.48,-0.75 2.15,-0.27 0.67,0.48 0.8,1.39 0.29,2.02 -0.01,0.01 -4.3,5.45 -8.92,5.45 -1.86,0 -3.2,-1.02 -4.95,-2.34 -2.58,-1.95 -6.24,-4.73 -13.83,-4.73 -7.59,0 -11.25,2.77 -13.83,4.73 -1.74,1.32 -3.09,2.34 -4.95,2.34 -4.63,0 -8.91,-5.44 -8.92,-5.45zm12.37 8.73c0.77,-0.33 1.68,-0 2.03,0.72 0.35,0.73 0,1.58 -0.77,1.91 -3.15,1.34 -6.15,3.63 -8.33,6.55 -1.95,2.61 -3.24,5.71 -3.4,9.09 -0.36,7.76 0,49.93 0,50.05 0,0.8 -0.68,1.44 -1.53,1.45 -0.85,0 -1.53,-0.64 -1.54,-1.43 0,-0.12 -0.36,-42.4 0,-50.18 0.18,-3.97 1.69,-7.6 3.95,-10.63 2.5,-3.35 5.95,-5.98 9.58,-7.52zm29.4 2.63c-0.77,-0.33 -1.12,-1.18 -0.77,-1.91 0.35,-0.73 1.26,-1.05 2.03,-0.72 3.63,1.55 7.08,4.17 9.58,7.52 2.26,3.03 3.77,6.66 3.95,10.63 0.36,7.78 0,50.06 0,50.18 -0,0.8 -0.69,1.44 -1.54,1.43 -0.85,-0 -1.53,-0.65 -1.53,-1.45 0,-0.12 0.36,-42.29 0,-50.05 -0.16,-3.38 -1.45,-6.49 -3.4,-9.09 -2.18,-2.92 -5.18,-5.21 -8.33,-6.55zm-21.57 -8.89l14.86 0c1.13,0 2.15,0.46 2.88,1.19 0.71,0.71 1.15,1.69 1.15,2.75l0 2.19c0,1.07 -0.44,2.04 -1.15,2.75 -0.73,0.73 -1.75,1.19 -2.88,1.19l-6.29 0c4.75,0.23 9.01,2.05 12.16,4.87 3.06,2.74 5.07,6.42 5.45,10.53l0.03 0 0.04 0 0 1.39 0 5.07 0 2.89 0 41.47 -0.04 0 -37.4 0 -0.04 0 0 -41.47 0 -2.89 0 -6.46 0.04 0 0.06 0c0.37,-4.1 2.38,-7.79 5.44,-10.53 3.15,-2.82 7.42,-4.63 12.16,-4.87l-6.47 0c-1.13,0 -2.15,-0.46 -2.88,-1.19 -0.71,-0.71 -1.15,-1.69 -1.15,-2.75l0 -2.19c0,-1.07 0.44,-2.04 1.15,-2.75 0.74,-0.74 1.76,-1.19 2.88,-1.19zm14.86 2.89l-14.86 0c-0.25,0 -0.48,0.11 -0.65,0.28 -0.19,0.19 -0.31,0.47 -0.31,0.78l0 2.19c0,0.31 0.12,0.58 0.31,0.78 0.17,0.17 0.4,0.28 0.65,0.28l14.86 0c0.25,0 0.48,-0.11 0.65,-0.28 0.19,-0.19 0.31,-0.47 0.31,-0.78l0 -2.19c0,-0.31 -0.12,-0.58 -0.31,-0.78 -0.17,-0.17 -0.4,-0.28 -0.65,-0.28zm8.22 22.58c-0.36,-3.28 -2,-6.23 -4.47,-8.44 -2.83,-2.53 -6.75,-4.09 -11.09,-4.09 -4.35,0 -8.27,1.57 -11.09,4.09 -2.47,2.21 -4.11,5.15 -4.47,8.44l4.48 0c0.35,-2.16 1.52,-4.1 3.21,-5.56 2.02,-1.75 4.8,-2.83 7.85,-2.83 3.06,0 5.84,1.08 7.86,2.83 1.69,1.46 2.86,3.4 3.21,5.56l4.52 0zm-7.65 0c-0.32,-1.32 -1.09,-2.51 -2.16,-3.44 -1.47,-1.27 -3.51,-2.06 -5.78,-2.06 -2.26,0 -4.31,0.79 -5.77,2.06 -1.07,0.93 -1.84,2.11 -2.16,3.44l15.87 0zm-14.32 40.58l6.23 0 0 6.95 -7.1 0 -0.67 0 -7.1 0 0 -6.95 1.54 0 5.56 0 0.67 0 0.87 0zm3.15 2.89l-1.62 0 0 1.17 1.62 0 0 -1.17zm8.09 0l-1.62 0 0 1.17 1.62 0 0 -1.17zm-3.16 -2.89l5.56 0 0.67 0 0.87 0 6.23 0 0 6.95 -7.1 0 -0.67 0 -7.1 0 0 -6.95 1.54 0zm-12.03 2.89l-1.62 0 0 1.17 1.62 0 0 -1.17zm22.28 0l-1.62 0 0 1.17 1.62 0 0 -1.17zm-18.34 -10.24l6.23 0 0 6.95 -7.1 0 -0.67 0 -7.1 0 0 -6.95 1.54 0 5.56 0 0.67 0 0.87 0zm3.15 2.89l-1.62 0 0 1.17 1.62 0 0 -1.17zm8.09 0l-1.62 0 0 1.17 1.62 0 0 -1.17zm-3.16 -2.89l5.56 0 0.67 0 0.87 0 6.23 0 0 6.95 -7.1 0 -0.67 0 -7.1 0 0 -6.95 1.54 0zm-12.03 2.89l-1.62 0 0 1.17 1.62 0 0 -1.17zm22.28 0l-1.62 0 0 1.17 1.62 0 0 -1.17zm-18.34 -10.24l6.23 0 0 6.95 -7.1 0 -0.67 0 -7.1 0 0 -6.95 1.54 0 5.56 0 0.67 0 0.87 0zm3.15 2.89l-1.62 0 0 1.17 1.62 0 0 -1.17zm8.09 0l-1.62 0 0 1.17 1.62 0 0 -1.17zm-3.16 -2.89l5.56 0 0.67 0 0.87 0 6.23 0 0 6.95 -7.1 0 -0.67 0 -7.1 0 0 -6.95 1.54 0zm-12.03 2.89l-1.62 0 0 1.17 1.62 0 0 -1.17zm22.28 0l-1.62 0 0 1.17 1.62 0 0 -1.17zm-18.34 -10.24l6.23 0 0 6.95 -7.1 0 -0.67 0 -7.1 0 0 -6.95 1.54 0 5.56 0 0.67 0 0.87 0zm3.15 2.89l-1.62 0 0 1.17 1.62 0 0 -1.17zm8.09 0l-1.62 0 0 1.17 1.62 0 0 -1.17zm-3.16 -2.89l5.56 0 0.67 0 0.87 0 6.23 0 0 6.95 -7.1 0 -0.67 0 -7.1 0 0 -6.95 1.54 0zm-12.03 2.89l-1.62 0 0 1.17 1.62 0 0 -1.17zm22.28 0l-1.62 0 0 1.17 1.62 0 0 -1.17zm-18.34 -10.24l6.23 0 0 6.95 -7.1 0 -0.67 0 -7.1 0 0 -6.95 1.54 0 5.56 0 0.67 0 0.87 0zm3.15 2.89l-1.62 0 0 1.17 1.62 0 0 -1.17zm8.09 0l-1.62 0 0 1.17 1.62 0 0 -1.17zm-3.16 -2.89l5.56 0 0.67 0 0.87 0 6.23 0 0 6.95 -7.1 0 -0.67 0 -7.1 0 0 -6.95 1.54 0zm-12.03 2.89l-1.62 0 0 1.17 1.62 0 0 -1.17zm22.28 0l-1.62 0 0 1.17 1.62 0 0 -1.17zm-27.57 -11.2l0 3.57 31.25 0 0 -3.57 -31.25 0zm0 6.46l0 38.58 31.25 0 0 -38.58 -31.25 0zm9.52 -87.65l4.57 0 0 -15.5 -4.57 0 0 15.5zm12.14 0l0 -15.5 -4.49 0 0 15.5 4.49 0zm0 -38.22l-12.14 0 0 19.83 4.57 0 7.57 0 0 -19.83zm-12.14 -2.89l12.21 0 0.33 0c-0.08,-1.06 -0.42,-2.59 -1.56,-3.86 -0.98,-1.1 -2.04,-1.65 -2.94,-1.93 -0.87,-0.27 -1.62,-0.28 -1.94,-0.28 -0.32,0 -1.07,0.01 -1.94,0.28 -0.89,0.28 -1.95,0.83 -2.93,1.93 -1.14,1.27 -1.48,2.81 -1.56,3.86l0.33 0zm-8.77 41.11l5.69 0 0 -15.5 -5.69 0 0 15.5zm24.05 0l5.69 0 0 -15.5 -5.69 0 0 15.5zm-24.1 -41.11l5.43 0c0.09,-1.35 0.46,-3.29 1.71,-5.03l-4.31 -3.17c-2.48,2.96 -2.84,6.39 -2.83,8.2zm5.74 2.89l-5.69 0 0 19.83 5.69 0 0 -19.83zm24.05 0l-5.69 0 0 19.83 5.69 0 0 -19.83zm-5.39 -2.89l5.43 0c0.01,-1.82 -0.35,-5.24 -2.83,-8.2l-4.31 3.17c1.25,1.74 1.62,3.69 1.71,5.03zm-7.95 -13.5l0 4.65c0.4,0.07 0.86,0.17 1.36,0.32 0.86,0.27 1.82,0.7 2.77,1.39l4.25 -3.13c-1.83,-1.42 -3.72,-2.23 -5.37,-2.69 -1.15,-0.32 -2.19,-0.47 -3.01,-0.54zm-3.08 4.65l0 -4.65c-0.82,0.07 -1.86,0.22 -3.01,0.54 -1.65,0.46 -3.54,1.27 -5.37,2.69l4.26 3.13c0.95,-0.69 1.91,-1.12 2.76,-1.39 0.5,-0.16 0.96,-0.26 1.36,-0.32zm23.22 11.24c-0.33,0.37 -0.84,0.58 -1.39,0.51 -0.84,-0.1 -1.43,-0.83 -1.32,-1.62 0,-0.02 1.18,-7.6 -4.48,-13.21 -2.87,-2.84 -6.02,-4.29 -8.69,-5.04 -2.66,-0.74 -4.87,-0.77 -5.81,-0.77 -0.94,0 -3.15,0.03 -5.81,0.77 -2.66,0.74 -5.82,2.19 -8.69,5.04 -5.67,5.61 -4.49,13.19 -4.48,13.21 0.11,0.79 -0.48,1.52 -1.32,1.62 -0.54,0.07 -1.06,-0.14 -1.39,-0.51 -0.24,0.28 -0.6,0.47 -1.01,0.52 -0.84,0.09 -1.61,-0.47 -1.71,-1.26 -0,-0.03 -1.54,-10.05 5.86,-17.51 3.39,-3.42 7.09,-5.3 10.33,-6.33 -2.05,0.03 -4.1,0.07 -6.14,0.13 -4.68,0.13 -9.41,0.35 -14.32,0.64 -0.85,0.05 -1.58,-0.55 -1.63,-1.35 -0.05,-0.8 0.59,-1.48 1.44,-1.53 4.84,-0.29 9.6,-0.51 14.42,-0.64 4.75,-0.13 9.52,-0.19 14.43,-0.16 4.91,-0.03 9.68,0.02 14.43,0.16 4.82,0.14 9.58,0.35 14.42,0.64 0.85,0.05 1.49,0.74 1.44,1.53 -0.05,0.8 -0.78,1.4 -1.63,1.35 -4.9,-0.29 -9.64,-0.51 -14.32,-0.64 -2.04,-0.06 -4.09,-0.1 -6.14,-0.13 3.24,1.03 6.95,2.91 10.33,6.33 7.4,7.46 5.86,17.48 5.86,17.51 -0.1,0.79 -0.86,1.36 -1.71,1.26 -0.41,-0.04 -0.77,-0.24 -1.01,-0.52zm-50.33 -45.52c-0.85,0.06 -1.58,-0.54 -1.65,-1.33 -0.06,-0.8 0.57,-1.49 1.42,-1.55 4.84,-0.35 9.6,-0.61 14.43,-0.78 4.75,-0.16 9.53,-0.23 14.44,-0.19 4.92,-0.04 9.69,0.03 14.45,0.19 4.83,0.17 9.59,0.43 14.43,0.78 0.85,0.06 1.48,0.75 1.42,1.55 -0.06,0.8 -0.8,1.39 -1.65,1.33 -4.91,-0.35 -9.64,-0.62 -14.31,-0.78 -4.74,-0.16 -9.48,-0.23 -14.33,-0.19l-0.02 0c-4.85,-0.04 -9.58,0.03 -14.33,0.19 -4.67,0.16 -9.4,0.42 -14.31,0.78zm17.96 -8.1l9.15 0 0 -8.69 -9.15 0 0 8.69zm9.15 2.89l-12.22 0 0 -11.58 0 -2.89 0 -12.76 1.54 0 10.68 0 1.54 0 1.54 0 12.22 0 0 12.76 0 2.89 0 11.58 -1.54 0 -10.68 0 -1.54 0 -1.54 0zm3.08 -2.89l9.15 0 0 -8.69 -9.15 0 0 8.69zm-3.08 -21.45l-9.15 0 0 9.87 9.15 0 0 -9.87zm12.22 0l-9.15 0 0 9.87 9.15 0 0 -9.87zm-127.81 -20.35l-0.04 -10.51 -2.77 1.37 0 10.63 2.81 -1.49zm17.11 -6.58l0.11 -12.01 -8.57 3.52 -0.05 11.46 8.51 -2.97zm21.12 -6.33l0 -11.89 -10.58 2.63 0 11.97 10.58 -2.71zm26.31 -4.54l0 -12.25 -13.76 2.29 0.05 12.16 13.71 -2.2zm29.62 -15.2l-15.95 1.25 -0.07 12.75 16.02 -1.04 0 -12.97zm30.24 -0.93l-14.54 0 0 13.15 14.54 0 0 -13.15zm135.65 46.89c4.28,-5.08 7.76,-12.95 2.7,-23.18 -5.22,-10.56 -21.67,-21.32 -49.5,-29.05 -23.8,-6.61 -55.82,-10.92 -96.14,-10.92 -40.32,0 -72.34,4.32 -96.14,10.92 -27.83,7.73 -44.28,18.49 -49.5,29.05 -5.06,10.24 -1.58,18.11 2.7,23.18 -1.64,-2.72 -3.1,-5.89 -3.63,-9.14 -1.5,-9.27 3.06,-12.72 3.08,-12.73l2.35 -1.81 0.06 0.98 0.06 -0.05 -0.12 -2.27 5.56 -5.63 0.39 2.62 0.39 -0.29 -0.13 -2.55 12.58 -8.01 0.22 3.26 2.17 -0.89 0 -2.82 15.21 -5.87 0 2.91 4.08 -1.35 0 -2.92 18.31 -4.92 0 3.34 6.81 -1.45 0 -3.33 22.73 -4.05 0 3.68 8.16 -0.86 0.13 -4.05 23.56 -1.35 0.25 3.39 10.34 -0.25 0 -3.27 20.74 0 0 3.27 10.34 0.25 0.25 -3.39 23.57 1.35 0.13 4.05 8.16 0.86 0 -3.68 22.73 4.05 0 3.33 6.81 1.45 0 -3.34 18.32 4.92 0 2.92 4.08 1.35 0 -2.91 15.2 5.87 0 2.82 2.17 0.89 0.22 -3.26 12.58 8.01 -0.13 2.55 0.39 0.29 0.39 -2.62 5.56 5.63 -0.12 2.27 0.06 0.05 0.06 -0.98 2.35 1.81c0.01,0.01 4.58,3.47 3.08,12.73 -0.53,3.25 -1.98,6.42 -3.63,9.14zm-10.09 -40.03c-1.99,-1.88 -4.79,-3.98 -8.71,-6.09 -7.46,-4 -23.98,-11.14 -52.5,-16.16 -18.55,-3.26 -42.16,-5.62 -71.64,-5.62 -29.47,0 -53.09,2.36 -71.64,5.62 -28.52,5.02 -45.04,12.16 -52.49,16.16 -3.92,2.1 -6.72,4.21 -8.71,6.09 8.71,-5.59 20.65,-10.76 35.84,-14.97 24.06,-6.68 56.38,-11.05 97,-11.05 40.62,0 72.94,4.37 97,11.05 15.19,4.22 27.13,9.38 35.84,14.97zm0.65 -3.36c0.2,-3.26 0.47,-5.93 0.7,-8.22 0.78,-7.79 1.09,-10.88 -3.39,-18.26 -3.73,-6.14 -16.25,-16.19 -45.47,-23.4 -19.94,-4.92 -47.57,-8.46 -85.33,-8.46 -37.76,0 -65.39,3.54 -85.33,8.46 -29.22,7.21 -41.74,17.26 -45.47,23.4 -4.48,7.38 -4.17,10.47 -3.39,18.26 0.23,2.28 0.5,4.95 0.7,8.22 2.01,-1.7 4.58,-3.49 7.84,-5.24 7.63,-4.1 24.5,-11.39 53.45,-16.49 18.73,-3.3 42.55,-5.68 72.2,-5.68 29.66,0 53.47,2.38 72.2,5.68 28.95,5.09 45.81,12.39 53.45,16.49 3.27,1.75 5.83,3.54 7.84,5.24zm-8.95 -36.77c-8.06,-12.33 -22.04,-20.91 -38.36,-26.82 -27.78,-10.07 -62.3,-12.4 -86.19,-12.4 -23.88,0 -58.4,2.34 -86.19,12.4 -16.32,5.91 -30.3,14.49 -38.36,26.82 7.5,-5.38 19.68,-11.26 38.45,-15.89 20.18,-4.98 48.07,-8.56 86.1,-8.56 38.03,0 65.92,3.58 86.1,8.56 18.77,4.63 30.95,10.51 38.45,15.89zm-59.65 -35.84c-1.17,-0.3 -2.34,-0.57 -3.54,-0.83 -11.88,-2.57 -22.89,-4.23 -33.09,-5.25 -10.19,-1.01 -19.59,-1.39 -28.27,-1.39 -8.68,0 -18.08,0.37 -28.26,1.39 -10.2,1.02 -21.21,2.68 -33.09,5.25 -1.19,0.26 -2.37,0.54 -3.53,0.83 22.79,-4.94 46.85,-6.27 64.89,-6.27 18.04,0 42.1,1.33 64.89,6.27zm3.62 -2.03c-6.15,-3.89 -16.26,-9.11 -30.07,-12.37 -24.37,-5.75 -38.27,-4.49 -38.31,-4.48l-0.13 0.01 -0.13 -0.01c-0.04,-0 -13.94,-1.27 -38.31,4.48 -13.81,3.26 -23.92,8.48 -30.07,12.37 2.11,-0.59 4.27,-1.14 6.47,-1.61 12,-2.6 23.13,-4.28 33.46,-5.31 10.34,-1.03 19.85,-1.41 28.58,-1.41 8.74,0 18.24,0.38 28.59,1.41 10.33,1.03 21.46,2.71 33.46,5.31 2.2,0.48 4.36,1.02 6.47,1.61zm-53.63 -19.3c-7.21,-1.98 -14.17,-2.27 -14.88,-2.3 -0.7,0.02 -7.66,0.32 -14.87,2.3 8.85,-0.85 14.03,-0.52 14.87,-0.45 0.85,-0.06 6.02,-0.39 14.88,0.45z"/>
   <g>
    <path class="fil3" d="M154.27 775.06c29.25,22.83 61.52,41.99 96.08,56.79l34.53 -89.08c-27.64,-12.16 -53.34,-27.9 -76.52,-46.64l-2.11 54.79 -51.98 24.13zm437.14 56.8c34.58,-14.8 66.84,-33.96 96.1,-56.8l-53.18 -24.13 -0.91 -54.79c-23.03,18.62 -48.56,34.28 -76,46.41l33.99 89.32z"/>
    <path class="fil3" d="M250.53 803.74c52.3,22.36 109.88,34.75 170.35,34.75 60.48,0 118.05,-12.39 170.35,-34.75l-34.1 -94.11c-41.69,18.37 -87.77,28.58 -136.25,28.58 -48.48,0 -94.56,-10.22 -136.25,-28.58l-34.1 94.11z"/>
   </g>
   <path class="fil2" d="M351.69 802.77l0.13 -0.89c1.06,0 1.99,-0.03 2.78,-0.1 0.79,-0.07 1.46,-0.25 2.02,-0.53 0.56,-0.28 1.01,-0.7 1.36,-1.25 0.35,-0.56 0.62,-1.34 0.8,-2.34 0.15,-0.78 0.34,-1.95 0.58,-3.51 0.23,-1.56 0.48,-3.23 0.74,-5 0.26,-1.77 0.51,-3.46 0.75,-5.08 0.24,-1.62 0.42,-2.88 0.56,-3.77 0.26,-1.79 0.55,-3.69 0.85,-5.72 0.3,-2.03 0.53,-3.83 0.69,-5.41 0.11,-1.01 0.08,-1.84 -0.09,-2.47 -0.17,-0.63 -0.49,-1.17 -0.96,-1.6 -0.47,-0.43 -1.07,-0.8 -1.81,-1.09 -0.74,-0.3 -1.61,-0.6 -2.63,-0.91l0.13 -0.89 19.1 2.83 -0.14 0.95c-1.17,-0.06 -2.14,-0.04 -2.92,0.05 -0.77,0.1 -1.41,0.3 -1.91,0.6 -0.5,0.31 -0.91,0.74 -1.22,1.3 -0.31,0.56 -0.55,1.29 -0.72,2.18 -0.13,0.63 -0.27,1.39 -0.42,2.28 -0.15,0.89 -0.31,1.93 -0.49,3.12l-1.45 9.43 -1.16 8.22c-0.18,1.19 -0.34,2.31 -0.5,3.35 -0.15,1.04 -0.24,1.89 -0.26,2.53 -0.04,0.79 -0.01,1.47 0.1,2.04 0.1,0.57 0.37,1.06 0.81,1.49 0.43,0.42 1.04,0.81 1.83,1.15 0.79,0.34 1.84,0.67 3.16,0.98l-0.14 0.95 -19.55 -2.89zm42.73 5.92c-2.1,-0.12 -4,-0.5 -5.69,-1.15 -1.69,-0.64 -3.13,-1.48 -4.31,-2.51 -1.18,-1.03 -2.08,-2.21 -2.7,-3.55 -0.62,-1.34 -0.89,-2.77 -0.8,-4.32 0.09,-1.5 0.45,-2.87 1.08,-4.09 0.64,-1.23 1.46,-2.32 2.47,-3.28 1.02,-0.96 2.18,-1.78 3.48,-2.46 1.29,-0.68 2.63,-1.24 4.02,-1.69 -1.13,-0.67 -2.19,-1.37 -3.18,-2.11 -0.99,-0.74 -1.84,-1.53 -2.55,-2.38 -0.69,-0.85 -1.25,-1.77 -1.64,-2.75 -0.4,-0.98 -0.56,-2.06 -0.49,-3.22 0.06,-1.05 0.39,-2.15 0.98,-3.28 0.59,-1.14 1.47,-2.16 2.63,-3.07 1.17,-0.91 2.62,-1.64 4.36,-2.18 1.75,-0.54 3.81,-0.74 6.22,-0.6 1.72,0.1 3.3,0.41 4.72,0.92 1.41,0.51 2.63,1.19 3.63,2.02 1.01,0.83 1.76,1.8 2.28,2.9 0.52,1.1 0.74,2.31 0.67,3.63 -0.08,1.43 -0.45,2.66 -1.12,3.7 -0.66,1.04 -1.45,1.92 -2.38,2.66 -0.93,0.74 -1.9,1.33 -2.89,1.78 -1.01,0.45 -1.91,0.79 -2.71,1 0.99,0.51 2.05,1.13 3.2,1.85 1.14,0.73 2.2,1.59 3.18,2.59 0.98,1 1.77,2.16 2.39,3.48 0.62,1.32 0.88,2.82 0.79,4.51 -0.08,1.46 -0.51,2.92 -1.27,4.37 -0.76,1.44 -1.8,2.72 -3.12,3.83 -1.33,1.11 -2.94,1.99 -4.84,2.63 -1.9,0.64 -4.03,0.9 -6.4,0.76zm-6.89 -11.42c-0.06,1.09 0.08,2.2 0.43,3.33 0.35,1.13 0.85,2.16 1.51,3.08 0.66,0.92 1.47,1.69 2.4,2.29 0.95,0.6 1.97,0.93 3.1,1 0.9,0.05 1.81,-0.13 2.74,-0.55 0.93,-0.42 1.77,-1.01 2.55,-1.78 0.78,-0.77 1.42,-1.69 1.93,-2.77 0.51,-1.08 0.81,-2.24 0.88,-3.48 0.08,-1.35 -0.1,-2.58 -0.52,-3.68 -0.43,-1.1 -1.03,-2.11 -1.82,-3.02 -0.8,-0.91 -1.72,-1.74 -2.79,-2.48 -1.06,-0.74 -2.2,-1.45 -3.39,-2.12 -0.78,0.37 -1.57,0.85 -2.37,1.45 -0.8,0.59 -1.54,1.31 -2.21,2.13 -0.67,0.83 -1.22,1.79 -1.66,2.87 -0.44,1.09 -0.7,2.33 -0.78,3.72zm16.14 -21.97c0.06,-1.01 -0.07,-1.97 -0.37,-2.88 -0.31,-0.9 -0.72,-1.69 -1.27,-2.36 -0.55,-0.67 -1.2,-1.21 -1.96,-1.61 -0.77,-0.4 -1.58,-0.63 -2.44,-0.68 -1.2,-0.07 -2.26,0.1 -3.19,0.49 -0.92,0.4 -1.7,0.93 -2.34,1.59 -0.63,0.66 -1.12,1.41 -1.45,2.24 -0.33,0.83 -0.51,1.62 -0.56,2.37 -0.1,1.69 0.48,3.2 1.71,4.51 1.24,1.32 3.11,2.74 5.62,4.28 0.41,-0.13 0.96,-0.36 1.64,-0.7 0.68,-0.34 1.34,-0.82 2,-1.44 0.66,-0.62 1.23,-1.41 1.74,-2.36 0.51,-0.95 0.8,-2.1 0.88,-3.46zm45.18 -7.34c-0.89,1.54 -1.93,3.5 -3.11,5.89 -1.18,2.39 -2.43,5.01 -3.73,7.86 -1.3,2.85 -2.61,5.82 -3.92,8.91 -1.31,3.09 -2.55,6.1 -3.72,9.02 -1.17,2.92 -2.21,5.66 -3.13,8.23 -0.91,2.57 -1.63,4.75 -2.13,6.54l-4.46 0.14 -0.88 -0.93 19.49 -40.5 -17.6 0.56c-1.2,0.04 -2.22,0.15 -3.04,0.32 -0.82,0.18 -1.54,0.51 -2.14,1 -0.61,0.49 -1.14,1.16 -1.6,2 -0.46,0.84 -0.94,1.95 -1.42,3.32l-0.52 -0.43 2.65 -10.76c0.17,-0.61 0.4,-1 0.7,-1.18 0.29,-0.18 0.72,-0.28 1.29,-0.3l26.47 -0.85 0.83 1.16zm38.96 33.75c-0.08,0.54 -0.24,0.95 -0.49,1.23 -0.25,0.28 -0.65,0.46 -1.21,0.53l-27.86 3.76 -0.24 -0.48c3.79,-4.27 6.98,-8.02 9.56,-11.23 2.59,-3.22 4.49,-6.24 5.7,-9.06 0.59,-1.29 1,-2.67 1.24,-4.13 0.24,-1.46 0.32,-2.88 0.22,-4.27 -0.09,-1.39 -0.38,-2.71 -0.85,-3.96 -0.47,-1.25 -1.16,-2.31 -2.06,-3.2 -0.9,-0.88 -2.03,-1.54 -3.4,-1.96 -1.37,-0.42 -2.96,-0.51 -4.79,-0.26 -1.08,0.15 -2.1,0.42 -3.05,0.81 -0.95,0.39 -1.82,0.85 -2.61,1.38 -0.78,0.52 -1.49,1.09 -2.13,1.71 -0.64,0.62 -1.17,1.22 -1.58,1.81l-0.39 -0.34c0.63,-1.23 1.37,-2.42 2.22,-3.58 0.85,-1.16 1.84,-2.2 2.96,-3.13 1.13,-0.93 2.41,-1.72 3.84,-2.37 1.43,-0.65 3.04,-1.09 4.83,-1.34 1.46,-0.2 2.95,-0.18 4.48,0.05 1.53,0.23 2.96,0.73 4.28,1.5 1.32,0.77 2.45,1.85 3.4,3.24 0.95,1.39 1.57,3.17 1.86,5.33 0.19,1.38 0.15,2.78 -0.12,4.2 -0.26,1.42 -0.68,2.81 -1.26,4.16 -0.58,1.35 -1.26,2.67 -2.03,3.95 -0.77,1.28 -1.6,2.5 -2.47,3.64 -0.58,0.76 -1.26,1.59 -2.03,2.5 -0.77,0.9 -1.59,1.85 -2.47,2.84 -0.87,0.99 -1.74,1.99 -2.61,3 -0.87,1.01 -1.7,1.98 -2.48,2.93l0.13 0.1 14.55 -1.96c1.27,-0.17 2.34,-0.46 3.22,-0.86 0.88,-0.4 1.61,-0.95 2.2,-1.64 0.59,-0.69 1.08,-1.54 1.48,-2.56 0.39,-1.02 0.76,-2.24 1.1,-3.65l0.4 0.4 -1.55 10.92z"/>
   <polygon class="fil4" points="250.5,802.57 252.27,832.67 271.94,811.62 "/>
   <polygon class="fil4" points="591.09,804.19 589.51,832.83 569.41,812.72 "/>
   <path class="fil5" d="M557.68 708.85l35.3 93.42 0 28.88 -3.54 1.67 0 -26.41c-25.86,10.86 -52.99,19.31 -81.11,25.05 -28.27,5.77 -57.52,8.8 -87.45,8.8 -29.93,0 -59.18,-3.03 -87.45,-8.8 -28.14,-5.74 -55.29,-14.19 -81.16,-25.07l0 26.27 -3.54 -1.49 0 -28.9 34.99 -93.43 3.3 1.23 -34.65 92.52c26.05,11.05 53.41,19.62 81.76,25.4 28,5.71 57.01,8.71 86.74,8.71 29.73,0 58.74,-3 86.74,-8.71 28.34,-5.78 55.68,-14.34 81.72,-25.38l-34.97 -92.54 3.31 -1.24z"/>
  </g>
 </g>
</svg>
